<svg width="35" height="35" viewBox="0 0 49 50" fill="none" xmlns="http://www.w3.org/2000/svg">
<path d="M49 24.8608C49 11.3296 38.0313 0.36084 24.5 0.36084C10.9687 0.36084 0 11.3296 0 24.8608C0 37.0891 8.95792 47.2266 20.6707 49.0632V31.9422H14.4496V24.8608H20.6707V19.4636C20.6707 13.3222 24.3294 9.93218 29.9263 9.93218C32.6086 9.93218 35.4107 10.4113 35.4107 10.4113V16.4401H32.3219C29.2802 16.4401 28.3293 18.3275 28.3293 20.2657V24.8608H35.1239L34.0387 31.9422H28.3293V49.0632C40.0421 47.2266 49 37.0891 49 24.8608Z" fill="#183451"/>
<path d="M34.0349 31.9422L35.1202 24.8608H28.3255V20.2657C28.3255 18.3275 29.2728 16.4401 32.3181 16.4401H35.4069V10.4112C35.4069 10.4112 32.6048 9.93213 29.9225 9.93213C24.3257 9.93213 20.667 13.3222 20.667 19.4635V24.8608H14.4458V31.9422H20.667V49.0632C21.9156 49.2592 23.1932 49.3608 24.4962 49.3608C25.7993 49.3608 27.0769 49.2592 28.3255 49.0632V31.9422H34.0349Z" fill="white"/>
</svg>
