<svg width="35" height="35" viewBox="0 0 52 52" fill="none" xmlns="http://www.w3.org/2000/svg">
<path d="M26.1489 51.7021C40.4261 51.7021 52 40.1282 52 25.8511C52 11.5739 40.4261 0 26.1489 0C11.8718 0 0.297852 11.5739 0.297852 25.8511C0.297852 40.1282 11.8718 51.7021 26.1489 51.7021Z" fill="#183451"/>
<path d="M26.1491 12.5045C30.4959 12.5045 31.0091 12.5198 32.7248 12.6002C34.3104 12.673 35.1721 12.9373 35.7465 13.1594C36.5048 13.4543 37.0487 13.8066 37.6193 14.3773C38.1899 14.9479 38.5423 15.4879 38.8372 16.25C39.0593 16.8245 39.3236 17.6862 39.3963 19.2717C39.4729 20.9875 39.4921 21.5045 39.4921 25.8475C39.4921 30.1905 39.4768 30.7075 39.3963 32.4232C39.3236 34.0088 39.0593 34.8705 38.8372 35.4449C38.5423 36.2032 38.1899 36.7471 37.6193 37.3177C37.0487 37.8883 36.5087 38.2407 35.7465 38.5356C35.1721 38.7577 34.3104 39.022 32.7248 39.0947C31.0091 39.1713 30.4959 39.1905 26.1491 39.1905C21.8023 39.1905 21.2891 39.1751 19.5733 39.0947C17.9878 39.022 17.1261 38.7577 16.5516 38.5356C15.7933 38.2407 15.2495 37.8883 14.6789 37.3177C14.1082 36.7471 13.7559 36.2071 13.461 35.4449C13.2389 34.8705 12.9746 34.0088 12.9018 32.4232C12.8252 30.7075 12.8061 30.1905 12.8061 25.8475C12.8061 21.5045 12.8214 20.9875 12.9018 19.2717C12.9746 17.6862 13.2389 16.8245 13.461 16.25C13.7559 15.4917 14.1082 14.9479 14.6789 14.3773C15.2495 13.8066 15.7895 13.4543 16.5516 13.1594C17.1261 12.9373 17.9878 12.673 19.5733 12.6002C21.2891 12.5236 21.8061 12.5045 26.1491 12.5045ZM26.1491 9.57471C21.7295 9.57471 21.1742 9.59386 19.4393 9.67429C17.7082 9.75471 16.5248 10.0266 15.4869 10.4326C14.4184 10.85 13.5108 11.4053 12.6031 12.3092C11.6993 13.213 11.1401 14.1207 10.7265 15.193C10.3244 16.227 10.0487 17.4105 9.96823 19.1454C9.88781 20.8802 9.86865 21.4356 9.86865 25.8551C9.86865 30.2747 9.88781 30.83 9.96823 32.5649C10.0487 34.296 10.3206 35.4794 10.7265 36.5173C11.144 37.5858 11.6993 38.4934 12.6031 39.4011C13.507 40.3049 14.4146 40.8641 15.4869 41.2777C16.521 41.6798 17.7044 41.9556 19.4393 42.036C21.1742 42.1164 21.7295 42.1356 26.1491 42.1356C30.5687 42.1356 31.124 42.1164 32.8589 42.036C34.5899 41.9556 35.7734 41.6837 36.8112 41.2777C37.8797 40.8603 38.7874 40.3049 39.695 39.4011C40.5989 38.4973 41.158 37.5896 41.5716 36.5173C41.9738 35.4832 42.2495 34.2998 42.3299 32.5649C42.4104 30.83 42.4295 30.2747 42.4295 25.8551C42.4295 21.4356 42.4104 20.8802 42.3299 19.1454C42.2495 17.4143 41.9776 16.2309 41.5716 15.193C41.1542 14.1245 40.5989 13.2168 39.695 12.3092C38.7912 11.4053 37.8836 10.8462 36.8112 10.4326C35.7772 10.0305 34.5938 9.75471 32.8589 9.67429C31.124 9.59386 30.5687 9.57471 26.1491 9.57471Z" fill="white"/>
<path d="M26.1496 17.491C21.5347 17.491 17.793 21.2327 17.793 25.8476C17.793 30.4625 21.5347 34.2042 26.1496 34.2042C30.7645 34.2042 34.5062 30.4625 34.5062 25.8476C34.5062 21.2327 30.7645 17.491 26.1496 17.491ZM26.1496 31.2744C23.1547 31.2744 20.7228 28.8463 20.7228 25.8476C20.7228 22.8488 23.1508 20.4208 26.1496 20.4208C29.1483 20.4208 31.5764 22.8488 31.5764 25.8476C31.5764 28.8463 29.1483 31.2744 26.1496 31.2744Z" fill="white"/>
<path d="M34.8389 19.1146C35.9176 19.1146 36.7921 18.2402 36.7921 17.1614C36.7921 16.0827 35.9176 15.2083 34.8389 15.2083C33.7602 15.2083 32.8857 16.0827 32.8857 17.1614C32.8857 18.2402 33.7602 19.1146 34.8389 19.1146Z" fill="white"/>
</svg>
