<svg width="426" height="401" viewBox="0 0 426 401" fill="none" xmlns="http://www.w3.org/2000/svg">
<g clip-path="url(#clip0_77_372)">
<path opacity="0.02" d="M218.768 397.787C334.511 394.782 425.751 304.024 422.558 195.074C419.366 86.1236 322.95 0.238238 207.207 3.24343C91.4646 6.24862 0.224791 97.0064 3.41734 205.956C6.60989 314.907 103.026 400.792 218.768 397.787Z" fill="#FFFFFC"/>
<path opacity="0.03" d="M418.689 229.474C435.688 122.535 357.373 22.8725 243.767 6.87131C130.161 -9.12991 24.2847 64.5897 7.28588 171.529C-9.71292 278.468 68.6027 378.13 182.209 394.131C295.815 410.133 401.691 336.413 418.689 229.474Z" fill="#FFFFFB"/>
<path opacity="0.04" d="M217.605 394.674C331.531 392.278 421.823 303.4 419.277 196.159C416.732 88.9189 322.313 3.92581 208.386 6.32199C94.4601 8.71816 4.16808 97.5963 6.71364 204.837C9.2592 312.077 103.678 397.07 217.605 394.674Z" fill="#FFFEF9"/>
<path opacity="0.05" d="M417.642 200.5C417.642 306.9 326.034 393.132 213 393.132C99.9663 393.132 8.3584 306.9 8.3584 200.5C8.3584 94.0994 99.9663 7.86755 213 7.86755C326.034 7.86755 417.642 94.0994 417.642 200.5Z" fill="#FFFEF8"/>
<path opacity="0.06" d="M222.157 391.359C334.148 386.609 420.843 297.299 415.797 191.881C410.751 86.4618 315.873 4.85373 203.882 9.6039C91.8912 14.3541 5.19534 103.664 10.2416 209.082C15.288 314.501 110.165 396.109 222.157 391.359Z" fill="#FFFEF6"/>
<path opacity="0.07" d="M414.325 200.5C414.325 305.152 324.21 390.01 213 390.01C101.79 390.01 11.708 305.152 11.708 200.5C11.708 95.8478 101.823 11.0209 213 11.0209C324.177 11.0209 414.325 95.8478 414.325 200.5Z" fill="url(#paint0_linear_77_372)"/>
<path opacity="0.08" d="M411.765 218.339C422.217 115.022 341.714 23.2909 231.956 13.4518C122.198 3.61267 24.7485 79.3913 14.296 182.708C3.84354 286.025 84.3466 377.756 194.105 387.595C303.863 397.434 401.312 321.655 411.765 218.339Z" fill="#FFFEF4"/>
<path opacity="0.09" d="M291.272 371.657C391.702 330.964 438.07 221.338 394.839 126.803C351.608 32.2673 235.149 -11.38 134.719 29.3139C34.29 70.0078 -12.0784 179.633 31.1525 274.168C74.3834 368.704 190.843 412.351 291.272 371.657Z" fill="#FFFEF3"/>
<path opacity="0.1" d="M409.317 200.5C409.317 302.561 321.424 385.265 213.034 385.265C104.643 385.265 16.7168 302.561 16.7168 200.5C16.7168 98.4391 104.61 15.7352 213.001 15.7352C321.391 15.7352 409.284 98.4703 409.284 200.5H409.317Z" fill="url(#paint1_linear_77_372)"/>
<path opacity="0.11" d="M402.664 241.666C426.807 143.071 361.469 44.7206 256.727 21.9944C151.985 -0.731896 47.5026 60.7721 23.3595 159.367C-0.783606 257.963 64.5548 356.313 169.297 379.039C274.039 401.766 378.521 340.262 402.664 241.666Z" fill="#FFFDF1"/>
<path opacity="0.12" d="M256.156 377.529C360.031 355.099 424.921 257.65 401.092 159.871C377.263 62.0927 273.74 1.01067 169.865 23.4409C65.9902 45.8711 1.10013 143.32 24.9288 241.098C48.7574 338.877 152.281 399.959 256.156 377.529Z" fill="#FFFDF0"/>
<path opacity="0.13" d="M402.423 225.566C417.125 127.095 344.24 36.0494 239.629 22.2102C135.019 8.37093 38.2971 76.9788 23.595 175.45C8.89297 273.921 81.7781 364.967 186.389 378.806C290.999 392.646 387.721 324.038 402.423 225.566Z" fill="#FFFDEF"/>
<path opacity="0.14" d="M402.617 200.5C402.617 299.064 317.742 378.989 213 378.989C108.258 378.989 23.3828 299.064 23.3828 200.5C23.3828 101.936 108.291 22.0106 213 22.0106C317.709 22.0106 402.617 101.905 402.617 200.5Z" fill="#FFFDEE"/>
<path opacity="0.15" d="M274.699 367.59C372.732 335.509 424.576 234.695 390.494 142.415C356.413 50.1345 249.313 1.33359 151.28 33.4147C53.247 65.4959 1.40368 166.311 35.4849 258.591C69.5661 350.871 176.666 399.672 274.699 367.59Z" fill="#FEFDEE"/>
<path opacity="0.16" d="M397.23 226.487C412.472 130.72 342.352 41.4555 240.615 27.1089C138.878 12.7623 44.0483 78.7664 28.8073 174.533C13.5662 270.3 83.6853 359.564 185.423 373.911C287.16 388.258 381.989 322.254 397.23 226.487Z" fill="#FEFDED"/>
<path opacity="0.17" d="M395.446 227.041C411.009 132.193 341.941 43.4268 241.179 28.7774C140.417 14.1279 46.1176 79.1422 30.5548 173.991C14.9921 268.839 84.0596 357.605 184.822 372.255C285.583 386.904 379.883 321.89 395.446 227.041Z" fill="#FEFDEC"/>
<path opacity="0.18" d="M393.774 226.798C409.194 132.819 340.759 44.8662 240.921 30.351C141.082 15.8357 47.6465 80.2543 32.2263 174.234C16.8062 268.213 85.2409 356.166 185.079 370.681C284.918 385.196 378.354 320.778 393.774 226.798Z" fill="#FEFDEB"/>
<path opacity="0.19" d="M394.259 200.5C394.259 294.724 313.099 371.122 213 371.122C112.901 371.122 31.7412 294.724 31.7412 200.5C31.7412 106.276 112.901 29.8783 213 29.8783C313.099 29.8783 394.259 106.276 394.259 200.5Z" fill="#FEFDEB"/>
<path opacity="0.2" d="M390.17 228.148C406.384 136.052 340.216 49.0205 242.378 33.7575C144.54 18.4946 52.0822 80.7803 35.8677 172.876C19.6532 264.973 85.822 352.004 183.66 367.267C281.498 382.53 373.955 320.245 390.17 228.148Z" fill="#FEFDEA"/>
<path opacity="0.21" d="M215.554 367.934C313.801 366.61 392.305 290.566 390.899 198.086C389.493 105.605 308.709 31.7074 210.462 33.0311C112.216 34.3547 33.7112 110.398 35.1174 202.879C36.5236 295.36 117.308 369.257 215.554 367.934Z" fill="#FEFDE9"/>
<path opacity="0.22" d="M388.922 210.981C395.051 119.534 321.266 40.7256 224.119 34.9562C126.971 29.1869 43.2491 98.6418 37.12 190.088C30.991 281.534 104.776 360.343 201.923 366.113C299.071 371.882 382.793 302.427 388.922 210.981Z" fill="#FEFCE9"/>
<path opacity="0.23" d="M387.56 200.5C387.56 291.259 309.418 364.815 213.001 364.815C116.583 364.815 38.4414 291.259 38.4414 200.5C38.4414 109.741 116.583 36.1848 213.001 36.1848C309.418 36.1848 387.56 109.741 387.56 200.5Z" fill="#FEFCE8"/>
<path opacity="0.24" d="M385.613 209.465C390.876 119.715 317.851 42.9413 222.506 37.9863C127.16 33.0314 45.6006 101.771 40.3367 191.521C35.0729 281.271 108.098 358.044 203.444 362.999C298.789 367.954 380.349 299.214 385.613 209.465Z" fill="#FEFCE7"/>
<path opacity="0.25" d="M383.959 209.654C389.337 120.773 317.153 44.6176 222.731 39.5551C128.31 34.4925 47.4063 102.44 42.0281 191.321C36.6499 280.201 108.834 356.357 203.255 361.419C297.677 366.482 378.581 298.534 383.959 209.654Z" fill="#FEFCE6"/>
<path opacity="0.26" d="M382.551 200.5C382.551 288.636 306.631 360.101 213 360.101C119.369 360.101 43.4492 288.636 43.4492 200.5C43.4492 112.364 119.369 40.8992 213 40.8992C306.631 40.8992 382.551 112.364 382.551 200.5Z" fill="#FEFCE5"/>
<path opacity="0.27" d="M380.893 200.5C380.893 287.793 305.736 358.54 213 358.54C120.264 358.54 45.1074 287.793 45.1074 200.5C45.1074 113.207 120.298 42.4602 213 42.4602C305.702 42.4602 380.893 113.207 380.893 200.5Z" fill="#FEFCE4"/>
<path opacity="0.28" d="M220.498 356.795C312.195 352.891 383.167 279.753 379.019 193.438C374.871 107.122 297.174 40.3153 205.478 44.2198C113.781 48.1242 42.8088 121.262 46.9567 207.577C51.1046 293.892 128.802 360.7 220.498 356.795Z" fill="#FEFCE3"/>
<path opacity="0.29" d="M377.542 200.5C377.542 286.045 303.878 355.386 213 355.386C122.121 355.386 48.457 286.045 48.457 200.5C48.457 114.955 122.121 45.6135 213 45.6135C303.878 45.6135 377.542 114.955 377.542 200.5Z" fill="#FEFCE3"/>
<path opacity="0.3" d="M375.885 200.5C375.885 285.171 302.95 353.825 213.001 353.825C123.051 353.825 50.1494 285.171 50.1494 200.5C50.1494 115.829 123.051 47.2058 213.001 47.2058C302.95 47.2058 375.885 115.829 375.885 200.531V200.5Z" fill="#FEFCE2"/>
<path opacity="0.31" d="M374.193 200.5C374.193 284.297 302.021 352.233 213 352.233C123.98 352.233 51.8076 284.297 51.8076 200.5C51.8076 116.703 123.98 48.7668 213 48.7668C302.021 48.7668 374.193 116.703 374.193 200.5Z" fill="#FEFCE1"/>
<path opacity="0.32" d="M372.535 200.5C372.535 283.422 301.126 350.672 213 350.672C124.875 350.672 53.4658 283.422 53.4658 200.5C53.4658 117.577 124.875 50.3279 213 50.3279C301.126 50.3279 372.535 117.546 372.535 200.5Z" fill="#FEFCE0"/>
<path opacity="0.33" d="M370.876 200.5C370.876 282.548 300.197 349.08 213.033 349.08C125.87 349.08 55.1904 282.548 55.1904 200.5C55.1904 118.452 125.87 51.8889 213.033 51.8889C300.197 51.8889 370.876 118.42 370.876 200.5Z" fill="#FEFBDF"/>
<path opacity="0.34" d="M300.052 322.544C371.673 277.293 390.762 185.956 342.69 118.539C294.617 51.1212 197.587 33.152 125.966 78.4035C54.3452 123.655 35.2558 214.991 83.3284 282.409C131.401 349.827 228.432 367.796 300.052 322.544Z" fill="#FEFBDF"/>
<path opacity="0.35" d="M213 345.958C298.342 345.958 367.526 280.834 367.526 200.5C367.526 120.166 298.342 55.0422 213 55.0422C127.657 55.0422 58.4736 120.166 58.4736 200.5C58.4736 280.834 127.657 345.958 213 345.958Z" fill="#FDFBDE"/>
<path opacity="0.36" d="M365.834 200.5C365.834 279.957 297.41 344.365 213 344.365C128.589 344.365 60.165 279.957 60.165 200.5C60.165 121.043 128.589 56.6345 213 56.6345C297.41 56.6345 365.834 121.043 365.834 200.5Z" fill="#FDFBDD"/>
<path opacity="0.37" d="M364.177 200.5C364.177 279.083 296.482 342.804 213 342.804C129.519 342.804 61.8242 279.083 61.8242 200.5C61.8242 121.917 129.519 58.1956 213 58.1956C296.482 58.1956 364.177 121.917 364.177 200.5Z" fill="#FDFBDC"/>
<path opacity="0.38" d="M217.4 341.182C299.941 338.903 364.891 274.07 362.47 196.373C360.05 118.676 291.174 57.5371 208.633 59.8159C126.092 62.0948 61.1422 126.928 63.5632 204.625C65.9841 282.322 134.859 343.461 217.4 341.182Z" fill="#FDFBDB"/>
<path opacity="0.39" d="M360.827 200.5C360.827 277.366 294.625 339.651 213 339.651C131.376 339.651 65.1738 277.334 65.1738 200.5C65.1738 123.666 131.376 61.3489 213 61.3489C294.625 61.3489 360.827 123.666 360.827 200.5Z" fill="#FDFBDB"/>
<path opacity="0.4" d="M359.168 200.5C359.168 276.491 293.729 338.09 213 338.09C132.271 338.09 66.832 276.491 66.832 200.5C66.832 124.509 132.271 62.9099 213 62.9099C293.729 62.9099 359.168 124.509 359.168 200.5Z" fill="#FDFBDA"/>
<path opacity="0.41" d="M357.51 200.5C357.51 275.617 292.834 336.498 213.033 336.498C133.233 336.498 68.5566 275.617 68.5566 200.5C68.5566 125.383 133.233 64.5021 213.033 64.5021C292.834 64.5021 357.51 125.383 357.51 200.5Z" fill="#FDFBD9"/>
<path opacity="0.42" d="M355.818 200.5C355.818 274.743 291.871 334.937 213 334.937C134.128 334.937 70.1816 274.743 70.1816 200.5C70.1816 126.257 134.128 66.0632 213 66.0632C291.871 66.0632 355.818 126.257 355.818 200.5Z" fill="#FDFBD9"/>
<path opacity="0.43" d="M354.159 200.5C354.159 273.869 290.976 333.376 213 333.376C135.023 333.376 71.8398 273.9 71.8398 200.5C71.8398 127.1 135.023 67.6241 213 67.6241C290.976 67.6241 354.159 127.1 354.159 200.5Z" fill="#FDFBD8"/>
<path opacity="0.44" d="M352.434 203.489C354.182 131.002 293.172 70.9062 216.166 69.2612C139.16 67.6162 75.317 125.045 73.5694 197.532C71.8219 270.02 132.831 330.116 209.838 331.761C286.844 333.406 350.687 275.977 352.434 203.489Z" fill="#FDFBD7"/>
<path opacity="0.45" d="M248.563 325.828C322.097 307.346 365.791 236.25 346.156 167.032C326.522 97.8129 250.994 56.683 177.46 75.1653C103.926 93.6477 60.2315 164.743 79.8661 233.962C99.5007 303.181 175.029 344.311 248.563 325.828Z" fill="#FDFBD6"/>
<path opacity="0.46" d="M347.968 217.231C357.767 147.07 305.289 82.7162 230.754 73.4918C156.22 64.2675 87.8534 113.666 78.054 183.827C68.2546 253.987 120.733 318.341 195.267 327.566C269.802 336.79 338.168 287.391 347.968 217.231Z" fill="#FDFAD6"/>
<path opacity="0.47" d="M263.209 317.875C332.096 291.769 365.457 218.038 337.722 153.194C309.988 88.3501 231.661 56.9471 162.775 83.0538C93.8877 109.16 60.527 182.891 88.2612 247.735C115.995 312.579 194.322 343.982 263.209 317.875Z" fill="#FDFAD5"/>
<path opacity="0.48" d="M262.59 316.489C330.627 290.705 363.577 217.884 336.184 153.84C308.792 89.7953 231.432 58.7796 163.394 84.5642C95.3572 110.349 62.4079 183.17 89.8 247.214C117.192 311.258 194.553 342.274 262.59 316.489Z" fill="#FDFAD4"/>
<path opacity="0.49" d="M213 323.916C285.41 323.916 344.11 268.661 344.11 200.5C344.11 132.339 285.41 77.0841 213 77.0841C140.59 77.0841 81.8896 132.339 81.8896 200.5C81.8896 268.661 140.59 323.916 213 323.916Z" fill="#FDFAD3"/>
<path opacity="0.5" d="M216.813 322.301C288.276 320.328 344.51 264.196 342.414 196.926C340.317 129.657 280.686 76.7233 209.222 78.6963C137.759 80.6694 81.5253 136.802 83.6214 204.071C85.7174 271.341 145.349 324.274 216.813 322.301Z" fill="#FDFAD3"/>
<path opacity="0.5" d="M216.764 320.741C287.312 318.793 342.825 263.38 340.756 196.972C338.686 130.564 279.819 78.309 209.271 80.2568C138.723 82.2045 83.2096 137.618 85.2788 204.025C87.348 270.433 146.216 322.689 216.764 320.741Z" fill="#FDFAD2"/>
<path opacity="0.51" d="M216.664 319.16C286.279 317.261 341.078 262.599 339.06 197.07C337.043 131.54 278.973 79.9576 209.358 81.8567C139.744 83.7558 84.9451 138.417 86.9625 203.947C88.98 269.476 147.05 321.059 216.664 319.16Z" fill="#FDFAD1"/>
<path opacity="0.52" d="M216.468 317.6C285.17 315.794 339.308 261.905 337.389 197.235C335.47 132.565 278.22 81.6045 209.519 83.4109C140.818 85.2173 86.6797 139.107 88.5987 203.776C90.5177 268.446 147.767 319.407 216.468 317.6Z" fill="#FDFAD0"/>
<path opacity="0.53" d="M335.785 200.5C335.785 264.315 280.827 316.048 213.033 316.048C145.239 316.048 90.2812 264.315 90.2812 200.5C90.2812 136.685 145.239 84.9518 213.033 84.9518C280.827 84.9518 335.785 136.685 335.785 200.5Z" fill="#FDFAD0"/>
<path opacity="0.54" d="M334.093 200.5C334.093 263.441 279.865 314.487 213 314.487C146.135 314.487 91.9062 263.441 91.9062 200.5C91.9062 137.559 146.135 86.5128 213 86.5128C279.865 86.5128 334.093 137.528 334.093 200.5Z" fill="#FDFACF"/>
<path opacity="0.55" d="M216.338 312.862C282.274 311.139 334.243 259.427 332.413 197.36C330.583 135.292 275.646 86.3735 209.71 88.0963C143.773 89.8192 91.804 141.531 93.6343 203.599C95.4646 265.666 150.401 314.585 216.338 312.862Z" fill="#FDFACE"/>
<path opacity="0.56" d="M216.291 311.27C281.294 309.572 332.527 258.592 330.722 197.404C328.918 136.216 274.76 87.9895 209.757 89.688C144.754 91.3864 93.5213 142.366 95.3256 203.554C97.13 264.743 151.288 312.969 216.291 311.27Z" fill="#FDFACD"/>
<path opacity="0.57" d="M329.086 200.5C329.086 260.85 277.113 309.773 213 309.773C148.888 309.773 96.915 260.85 96.915 200.5C96.915 140.15 148.888 91.2271 213 91.2271C277.113 91.2271 329.086 140.15 329.086 200.5Z" fill="#FDFACC"/>
<path opacity="0.58" d="M327.427 200.5C327.427 259.976 276.217 308.212 213.033 308.212C149.85 308.212 98.6396 260.007 98.6396 200.5C98.6396 140.993 149.85 92.8193 213.033 92.8193C276.217 92.8193 327.427 141.024 327.427 200.5Z" fill="#FDF9CB"/>
<path opacity="0.59" d="M325.736 200.5C325.736 259.101 275.255 306.619 213 306.619C150.745 306.619 100.265 259.101 100.265 200.5C100.265 141.898 150.745 94.3804 213 94.3804C275.255 94.3804 325.736 141.898 325.736 200.5Z" fill="#FCF9CB"/>
<path opacity="0.6" d="M323.869 206.795C327.561 149.154 280.913 99.6091 219.678 96.1341C158.443 92.659 105.81 136.57 102.118 194.211C98.4263 251.852 145.074 301.397 206.309 304.872C267.544 308.347 320.178 264.436 323.869 206.795Z" fill="#FCF9CA"/>
<path opacity="0.61" d="M322.419 200.5C322.419 257.384 273.431 303.466 213.033 303.466C152.635 303.466 103.647 257.353 103.647 200.5C103.647 143.647 152.635 97.5337 213.033 97.5337C273.431 97.5337 322.419 143.647 322.419 200.5Z" fill="#FCF9C9"/>
<path opacity="0.62" d="M320.727 200.5C320.727 256.51 272.502 301.905 213 301.905C153.498 301.905 105.272 256.51 105.272 200.5C105.272 144.49 153.498 99.0947 213 99.0947C272.502 99.0947 320.727 144.49 320.727 200.5Z" fill="#FCF9C8"/>
<path opacity="0.63" d="M319.069 200.5C319.069 255.636 271.574 300.344 213 300.344C154.427 300.344 106.932 255.636 106.932 200.5C106.932 145.364 154.427 100.656 213 100.656C271.574 100.656 319.069 145.333 319.069 200.5Z" fill="#FCF9C7"/>
<path opacity="0.64" d="M317.378 200.5C317.378 254.762 270.645 298.752 213 298.752C155.356 298.752 108.623 254.762 108.623 200.5C108.623 146.238 155.356 102.248 213 102.248C270.645 102.248 317.378 146.238 317.378 200.5Z" fill="#FCF9C6"/>
<path opacity="0.65" d="M312.878 223.013C326.083 171.079 292.062 118.902 236.89 106.472C181.719 94.0419 126.288 126.066 113.083 178C99.8785 229.935 133.899 282.112 189.071 294.542C244.243 306.972 299.674 274.947 312.878 223.013Z" fill="#FCF9C5"/>
<path opacity="0.66" d="M314.061 200.5C314.061 253.013 268.821 295.599 213.033 295.599C157.246 295.599 112.006 253.013 112.006 200.5C112.006 147.987 157.246 105.401 213.033 105.401C268.821 105.401 314.061 147.987 314.061 200.5Z" fill="#FCF9C5"/>
<path opacity="0.67" d="M312.369 200.5C312.369 252.17 267.892 294.037 213 294.037C158.108 294.037 113.631 252.17 113.631 200.5C113.631 148.83 158.108 106.962 213 106.962C267.892 106.962 312.369 148.83 312.369 200.5Z" fill="#FCF9C4"/>
<path opacity="0.68" d="M215.735 292.42C269.678 291.011 312.194 248.705 310.697 197.927C309.2 147.149 264.256 107.129 210.313 108.538C156.369 109.948 113.853 152.254 115.351 203.031C116.848 253.809 161.792 293.83 215.735 292.42Z" fill="#FCF8C3"/>
<path opacity="0.69" d="M215.689 290.829C268.698 289.444 310.478 247.87 309.007 197.971C307.535 148.073 263.37 108.745 210.36 110.13C157.351 111.515 115.571 153.089 117.042 202.987C118.514 252.886 162.679 292.214 215.689 290.829Z" fill="#FCF8C2"/>
<path opacity="0.7" d="M307.361 200.5C307.361 249.548 265.106 289.323 213 289.323C160.895 289.323 118.64 249.548 118.64 200.5C118.64 151.452 160.895 111.677 213 111.677C265.106 111.677 307.361 151.452 307.361 200.5Z" fill="#FCF8C1"/>
<path opacity="0.71" d="M305.703 200.5C305.703 248.674 264.211 287.731 213.034 287.731C161.856 287.731 120.364 248.674 120.364 200.5C120.364 152.326 161.856 113.238 213.034 113.238C264.211 113.238 305.703 152.295 305.703 200.5Z" fill="#FCF8C0"/>
<path opacity="0.72" d="M304.011 200.5C304.011 247.831 263.249 286.17 213 286.17C162.752 286.17 121.989 247.799 121.989 200.5C121.989 153.2 162.752 114.83 213 114.83C263.249 114.83 304.011 153.169 304.011 200.5Z" fill="#FCF8BF"/>
<path opacity="0.73" d="M302.327 202.769C303.645 156.334 264.722 117.685 215.392 116.445C166.062 115.204 125.003 151.842 123.686 198.278C122.368 244.713 161.29 283.362 210.62 284.602C259.951 285.843 301.009 249.205 302.327 202.769Z" fill="#FCF8BF"/>
<path opacity="0.74" d="M300.694 200.5C300.694 246.082 261.424 283.017 213.033 283.017C164.642 283.017 125.372 246.082 125.372 200.5C125.372 154.918 164.609 117.983 213.033 117.983C261.457 117.983 300.694 154.918 300.694 200.5Z" fill="#FCF8BE"/>
<path opacity="0.75" d="M213 281.456C260.498 281.456 299.002 245.21 299.002 200.5C299.002 155.789 260.498 119.544 213 119.544C165.502 119.544 126.997 155.789 126.997 200.5C126.997 245.21 165.502 281.456 213 281.456Z" fill="#FCF8BD"/>
<path opacity="0.76" d="M297.345 200.5C297.345 244.334 259.6 279.894 213.001 279.894C166.401 279.894 128.656 244.365 128.656 200.5C128.656 156.635 166.401 121.105 213.001 121.105C259.6 121.105 297.345 156.635 297.345 200.5Z" fill="#FCF8BC"/>
<path opacity="0.77" d="M295.653 200.5C295.653 243.46 258.639 278.302 213 278.302C167.362 278.302 130.348 243.46 130.348 200.5C130.348 157.54 167.362 122.698 213 122.698C258.639 122.698 295.653 157.54 295.653 200.5Z" fill="#FCF8BC"/>
<path opacity="0.78" d="M293.995 200.5C293.995 242.617 257.743 276.741 213 276.741C168.258 276.741 132.006 242.617 132.006 200.5C132.006 158.383 168.258 124.259 213 124.259C257.743 124.259 293.995 158.383 293.995 200.5Z" fill="#FCF8BB"/>
<path opacity="0.79" d="M292.336 200.5C292.336 241.743 256.814 275.149 213.033 275.149C169.253 275.149 133.73 241.711 133.73 200.5C133.73 159.289 169.253 125.851 213.033 125.851C256.814 125.851 292.336 159.289 292.336 200.5Z" fill="#FBF7BA"/>
<path opacity="0.8" d="M290.644 200.5C290.644 240.869 255.885 273.588 213 273.588C170.115 273.588 135.355 240.869 135.355 200.5C135.355 160.132 170.115 127.412 213 127.412C255.885 127.412 290.644 160.132 290.644 200.5Z" fill="#FBF7B9"/>
<path opacity="0.81" d="M215.133 271.979C257.082 270.882 290.146 237.983 288.981 198.495C287.817 159.007 252.866 127.884 210.916 128.98C168.966 130.076 135.903 162.976 137.067 202.464C138.232 241.952 173.183 273.075 215.133 271.979Z" fill="#FBF7B9"/>
<path opacity="0.82" d="M287.294 200.5C287.294 239.12 254.028 270.435 213 270.435C171.972 270.435 138.705 239.12 138.705 200.5C138.705 161.88 171.972 130.565 213 130.565C254.028 130.565 287.294 161.88 287.294 200.5Z" fill="#FBF7B8"/>
<path opacity="0.83" d="M285.637 200.5C285.637 238.246 253.133 268.873 213.001 268.873C172.868 268.873 140.364 238.277 140.364 200.5C140.364 162.723 172.868 132.126 213.001 132.126C253.133 132.126 285.637 162.723 285.637 200.5Z" fill="#FBF7B7"/>
<path opacity="0.84" d="M283.978 200.5C283.978 237.403 252.204 267.281 213.034 267.281C173.863 267.281 142.089 237.372 142.089 200.5C142.089 163.628 173.863 133.687 213.034 133.687C252.204 133.687 283.978 163.597 283.978 200.5Z" fill="#FBF7B7"/>
<path opacity="0.85" d="M282.287 200.5C282.287 236.529 251.275 265.72 213 265.72C174.725 265.72 143.714 236.529 143.714 200.5C143.714 164.471 174.725 135.28 213 135.28C251.275 135.28 282.287 164.471 282.287 200.5Z" fill="#FBF7B6"/>
<path opacity="0.86" d="M280.628 200.5C280.628 235.655 250.346 264.159 213 264.159C175.654 264.159 145.372 235.655 145.372 200.5C145.372 165.345 175.654 136.841 213 136.841C250.346 136.841 280.628 165.345 280.628 200.5Z" fill="#FBF7B5"/>
<path opacity="0.87" d="M278.936 200.5C278.936 234.78 249.418 262.567 213 262.567C176.582 262.567 147.063 234.78 147.063 200.5C147.063 166.22 176.582 138.433 213 138.433C249.418 138.433 278.936 166.22 278.936 200.5Z" fill="#FBF7B5"/>
<path opacity="0.88" d="M277.278 200.5C277.278 233.906 248.489 261.006 213 261.006C177.511 261.006 148.722 233.906 148.722 200.5C148.722 167.094 177.511 139.994 213 139.994C248.489 139.994 277.278 167.094 277.278 200.5Z" fill="#FBF7B4"/>
<path opacity="0.89" d="M275.619 200.5C275.619 233.063 247.593 259.445 213.033 259.445C178.473 259.445 150.446 233.063 150.446 200.5C150.446 167.937 178.473 141.555 213.033 141.555C247.593 141.555 275.619 167.937 275.619 200.5Z" fill="#FBF7B3"/>
<path opacity="0.9" d="M273.929 200.5C273.929 232.189 246.665 257.853 213 257.853C179.336 257.853 152.072 232.189 152.072 200.5C152.072 168.811 179.369 143.147 213 143.147C246.632 143.147 273.929 168.811 273.929 200.5Z" fill="#FBF7B3"/>
<path opacity="0.91" d="M272.27 200.5C272.27 231.315 245.736 256.292 213 256.292C180.264 256.292 153.73 231.315 153.73 200.5C153.73 169.685 180.264 144.708 213 144.708C245.736 144.708 272.27 169.685 272.27 200.5Z" fill="#FBF7B2"/>
<path opacity="0.92" d="M270.579 200.5C270.579 230.441 244.808 254.699 213 254.699C181.193 254.699 155.422 230.441 155.422 200.5C155.422 170.559 181.193 146.301 213 146.301C244.808 146.301 270.579 170.559 270.579 200.5Z" fill="#FBF6B1"/>
<path opacity="0.93" d="M268.92 200.5C268.92 229.567 243.879 253.138 213 253.138C182.121 253.138 157.08 229.567 157.08 200.5C157.08 171.433 182.121 147.862 213 147.862C243.879 147.862 268.92 171.433 268.92 200.5Z" fill="#FBF6B1"/>
<path opacity="0.94" d="M267.261 200.5C267.261 228.692 242.983 251.577 213 251.577C183.017 251.577 158.738 228.724 158.738 200.5C158.738 172.276 183.017 149.423 213 149.423C242.983 149.423 267.261 172.276 267.261 200.5Z" fill="#FBF6B0"/>
<path opacity="0.95" d="M265.57 200.5C265.57 227.849 242.021 249.985 213 249.985C183.978 249.985 160.43 227.818 160.43 200.5C160.43 173.182 183.978 151.015 213 151.015C242.021 151.015 265.57 173.182 265.57 200.5Z" fill="#FBF6AF"/>
<path opacity="0.96" d="M263.911 200.5C263.911 226.975 241.125 248.424 213 248.424C184.874 248.424 162.088 226.975 162.088 200.5C162.088 174.025 184.874 152.576 213 152.576C241.125 152.576 263.911 174.025 263.911 200.5Z" fill="#FAF6AF"/>
<path opacity="0.97" d="M260.884 211.216C267.17 186.321 250.827 161.343 224.38 155.426C197.933 149.509 171.398 164.894 165.112 189.788C158.826 214.683 175.17 239.661 201.617 245.578C228.063 251.495 254.599 236.111 260.884 211.216Z" fill="#FAF6AE"/>
<path opacity="0.98" d="M260.562 200.5C260.562 225.227 239.269 245.27 213 245.27C186.732 245.27 165.438 225.227 165.438 200.5C165.438 175.773 186.732 155.729 213 155.729C239.269 155.729 260.562 175.773 260.562 200.5Z" fill="#FAF6AD"/>
<path opacity="0.99" d="M230.404 240.473C253.859 231.417 265.076 206.178 255.456 184.098C245.836 162.019 219.023 151.461 195.567 160.517C172.111 169.572 160.895 194.812 170.515 216.891C180.135 238.97 206.948 249.528 230.404 240.473Z" fill="#FAF6AD"/>
<path d="M257.212 200.5C257.212 223.478 237.411 242.117 213 242.117C188.589 242.117 168.788 223.478 168.788 200.5C168.788 177.521 188.589 158.883 213 158.883C237.411 158.883 257.212 177.521 257.212 200.5Z" fill="#FAF6AC"/>
<path d="M374.193 198.97C374.193 282.611 302.154 350.422 213.299 350.422C124.444 350.422 52.4043 282.642 52.4043 198.97C52.4043 115.298 124.444 47.5181 213.299 47.5181C302.154 47.5181 374.193 115.33 374.193 198.97Z" fill="#E3E2E1"/>
<path d="M226.5 344.99C226.5 344.99 225.339 342.804 221.89 341.961C220.298 341.556 219.137 340.276 216.981 337.341C216.981 337.341 213.366 337.341 210.182 333.688L207.926 330.753L203.349 333.688H199.137C199.137 333.688 197.478 329.317 201.492 326.039C201.492 326.039 199.8 321.293 198.275 321.918C196.716 322.511 192.868 321.918 192.868 321.918C194.427 322.386 195.057 323.853 195.057 323.853L192.603 325.321L191.044 326.538L188.855 327.756L187.628 326.414C187.628 326.414 187.561 324.603 186.533 324.946L185.505 325.321C185.505 325.321 185.638 325.321 185.737 325.29C185.737 325.29 185.77 325.29 185.804 325.29C185.936 325.29 186.003 325.258 186.069 325.227C186.202 325.227 186.301 325.196 186.268 325.196C186.268 325.196 186.202 325.196 186.069 325.227C186.003 325.227 185.903 325.258 185.804 325.29C185.804 325.29 185.77 325.29 185.737 325.29C185.605 325.29 185.505 325.321 185.505 325.321C183.814 325.695 183.316 325.196 182.785 324.852C182.255 324.478 181.359 324.603 181.359 324.603C179.933 324.977 178.009 324.977 178.009 324.977V321.574L180.198 321.2L181.989 320.482C181.989 320.482 181.857 318.546 181.989 318.546C182.122 318.546 183.913 319.888 183.913 319.888L184.576 321.231L185.87 321.949C185.87 321.949 187.561 321.449 187.561 320.981V319.514L189.12 319.014C189.12 319.014 189.883 319.607 189.751 320.232C189.618 320.825 189.751 321.949 189.751 321.949H192.835L191.973 316.173C191.973 316.173 190.149 315.143 186.533 312.177C186.533 312.177 186.268 303.466 186.069 300.188C185.969 298.721 184.709 293.881 184.709 293.881L180.696 292.195C180.696 292.195 175.389 291.103 172.703 291.946C172.703 291.946 171.907 294.631 172.703 294.631H178.64L181.989 295.848L180.696 298.533C180.696 298.533 181.459 300.219 181.989 301.218C182.52 302.186 183.018 303.404 183.548 304.871C184.079 306.339 186.135 307.556 186.135 307.556L185.107 310.959L182.288 314.362L180.232 311.209H176.616L178.175 314.362L172.769 315.83C171.973 314.113 168.391 313.644 168.391 313.644C167.363 315.83 162.951 315.83 162.951 315.83L158.308 314.362L157.777 311.459L152.603 309.024V306.588C150.779 304.403 150.282 301.718 150.282 301.718C148.225 300.25 148.988 297.846 148.988 297.846L152.869 298.565L154.925 295.661L155.19 292.757C153.631 292.039 149.751 290.322 149.751 290.322C148.457 288.137 149.751 286.201 149.751 286.201C150.016 284.515 147.96 283.048 147.96 283.048L144.61 284.265C144.61 284.265 141.658 282.954 140.995 282.579C138.673 281.112 135.821 282.08 135.821 282.08V285.983C133.764 287.45 131.94 287.668 131.94 287.668C129.618 288.886 129.884 289.854 128.59 288.636C127.297 287.419 126.268 287.419 126.268 287.419C124.975 289.604 124.975 290.822 124.975 290.822L128.855 292.757C130.912 294.693 130.149 295.661 129.121 295.193C128.093 294.693 125.506 293.476 125.506 293.476C123.184 293.226 122.653 291.54 122.653 291.54L120.066 291.04L117.479 292.258C118.01 294.443 120.597 296.161 120.597 296.161C122.653 297.128 122.653 299.564 122.653 299.564C121.094 300.063 118.773 299.813 118.773 299.813L114.66 298.346L112.836 296.161C110.779 296.161 109.486 293.476 109.486 293.476C107.164 293.476 106.368 292.008 106.368 292.008L101.459 289.573C101.459 289.573 98.1094 290.072 97.8441 288.855C97.5788 287.637 95.2571 286.919 95.2571 286.919L91.6418 286.669L88.7895 283.766C86.2024 281.83 85.4396 280.113 85.4396 280.113L83.8807 277.428C82.0565 276.46 81.2937 273.307 81.2937 273.307C78.4413 272.839 77.1478 273.057 77.1478 273.057C74.826 272.558 72.9355 273.151 72.9023 273.151C100.464 319.358 153.001 350.578 213.299 350.578C220.231 350.578 227.097 350.173 233.797 349.361C233.664 348.643 233.266 347.144 231.906 345.115H226.467L226.5 344.99ZM194.991 342.43C194.991 342.43 193.067 342.555 192.669 342.43C192.271 342.305 190.878 342.43 189.319 341.337C189.319 341.337 187.528 340.494 186.467 340.369C185.439 340.244 186.467 339.027 186.467 339.027L188.789 337.934C188.789 337.934 190.613 338.434 191.243 337.341H193.697C193.697 337.341 194.858 337.934 193.697 338.683L194.991 339.932C194.991 339.932 196.284 340.65 196.782 341.743L194.991 342.461V342.43Z" fill="#CCCCCC"/>
<path d="M63.2832 149.735C63.7143 148.642 63.9465 147.768 63.9465 147.05L67.8271 143.897L69.6181 140.743L70.381 136.622C72.968 134.905 76.0526 131.283 76.0526 131.283C76.1189 131.034 76.2184 130.815 76.3842 130.628C75.555 131.721 74.7922 132.688 74.2615 133.25C74.2615 133.25 70.4141 136.622 64.7757 140.525C64.7425 140.618 64.6762 140.712 64.643 140.806L63.25 149.766L63.2832 149.735Z" fill="#CCCCCC"/>
<path d="M263.282 172.089L260.695 169.654L258.108 168.936L257.345 166.251C255.787 166.75 256.052 164.315 256.052 164.315L254.261 167.219C252.205 165.751 250.646 167.219 250.646 167.219L250.911 169.404L247.561 168.186C247.561 168.186 244.742 167.843 244.211 168.436L242.155 170.622C242.155 170.622 239.303 172.089 238.805 171.09C238.274 170.122 237.246 168.905 238.042 168.905C238.838 168.905 240.629 168.405 240.629 168.405C239.866 166.22 239.601 163.535 238.838 164.034C238.075 164.502 235.986 164.034 235.223 164.034C234.46 164.034 232.371 165.252 232.371 165.252C230.314 166.22 229.021 165.751 229.021 165.751L229.286 162.598L227.992 159.195C225.405 159.195 224.908 157.259 224.908 157.259L222.321 157.009C220.762 155.292 221.558 153.107 221.558 153.107C221.027 151.639 218.208 151.889 218.208 151.889L214.593 150.921L210.712 149.235L214.593 146.55C215.356 144.615 217.412 144.865 217.412 144.865C218.44 142.929 218.175 140.494 218.175 140.494C217.412 138.808 218.706 139.245 219.734 138.121C221.79 135.873 223.88 134.905 223.88 134.905C225.936 133.937 226.201 132.47 226.201 132.47C224.775 131.814 223.946 131.471 223.515 131.159C223.449 131.252 223.415 131.346 223.349 131.502C222.852 132.969 221.558 133.937 221.558 133.937C219.502 134.905 217.943 135.405 217.943 135.405L218.208 132.969C216.152 134.437 213.432 138.152 213.432 138.152C213.432 138.152 211.774 139.557 210.746 139.557C209.717 139.557 204.411 141.493 204.411 141.493C204.278 142.71 199.9 143.428 199.9 143.428L196.285 144.646L192.669 144.146L189.585 144.396C187.528 145.114 185.472 145.364 185.472 145.364L182.62 146.582L181.592 143.897C178.739 144.146 175.92 142.929 175.92 142.929L176.451 140.743C174.892 139.526 175.157 136.372 175.157 136.372C174.394 134.905 171.807 133.937 171.807 133.937L167.694 134.905C165.107 133.188 162.52 134.905 162.52 134.905L160.962 131.502L155.555 133.438L153.499 132.72L148.59 132.002C148.59 132.002 141.094 135.904 141.36 136.622C141.625 137.34 142.653 140.494 142.653 140.494C140.597 142.211 139.038 145.583 139.038 145.583C139.038 147.518 140.597 149.485 140.597 149.485C138.275 151.421 136.716 153.856 136.716 153.856L136.219 157.009C137.778 159.445 140.099 160.412 140.099 160.412C142.952 161.63 143.98 160.163 143.98 160.163C145.273 159.663 147.33 157.977 147.33 157.977C149.386 159.694 150.68 160.412 150.68 160.412C152.736 158.227 153.532 156.51 153.532 156.51C155.588 157.228 156.617 158.446 156.617 158.446C156.617 158.446 158.175 158.196 159.734 156.978L161.293 155.761C161.293 155.761 161.293 155.667 161.293 155.542C161.293 155.48 161.293 155.417 161.293 155.355C161.293 155.355 161.293 155.23 161.293 155.199C161.293 155.136 161.293 155.105 161.293 155.042C161.293 154.855 161.326 154.699 161.326 154.668C161.326 154.668 161.326 154.824 161.293 155.042C161.293 155.105 161.293 155.136 161.293 155.199C161.293 155.23 161.293 155.292 161.293 155.323C161.293 155.323 161.293 155.48 161.293 155.542C161.293 155.667 161.293 155.761 161.293 155.761C161.028 158.196 159.237 161.349 159.237 161.349C159.237 163.285 157.18 165.002 157.18 165.002L157.943 167.905L155.356 170.091C155.887 172.276 154.593 174.961 154.593 174.961L152.006 177.646L152.537 179.832C152.537 179.832 155.622 176.429 157.18 176.179C158.739 175.929 162.355 175.679 162.355 175.679C162.355 175.679 163.383 174.212 164.942 174.212C166.5 174.212 167.794 173.962 167.794 173.962L167.529 176.398C169.353 176.866 171.675 173.744 172.703 173.962C175.024 174.462 175.787 175.679 175.787 175.679V179.582C174.228 180.8 171.641 183.235 171.641 183.235C171.641 183.235 170.879 185.42 171.641 185.92C172.404 186.419 174.228 188.605 174.228 188.605L173.698 191.508L172.404 193.444C172.404 193.444 175.522 193.6 175.754 194.662C176.285 196.847 176.749 197.284 177.545 197.909C179.336 199.282 181.691 198.97 181.691 198.97C181.691 198.97 181.956 199.532 181.956 201.718C181.956 203.903 184.543 205.62 185.572 206.089C186.6 206.588 185.572 208.024 185.572 208.773V211.209L185.306 217.047C185.306 217.047 182.885 218.577 182.487 219.232L181.459 220.918C181.459 220.918 181.558 220.856 181.691 220.762C181.757 220.7 181.857 220.669 181.923 220.606C181.99 220.575 182.023 220.544 182.089 220.481C182.155 220.45 182.222 220.388 182.255 220.356C182.487 220.2 182.653 220.075 182.686 220.075C182.686 220.075 182.487 220.2 182.255 220.356C182.189 220.388 182.155 220.419 182.089 220.481C182.023 220.513 181.99 220.544 181.923 220.606C181.857 220.669 181.757 220.7 181.691 220.762C181.558 220.856 181.459 220.918 181.459 220.918C178.606 222.854 175.257 224.321 175.257 225.04C175.257 225.758 174.991 228.443 174.991 228.443C176.849 229.816 178.706 231.471 179.369 232.095C180.729 228.88 182.421 225.196 183.747 223.229C183.747 223.229 183.747 223.229 183.747 223.197V223.229L186.732 221.605C186.732 221.605 189.95 218.514 190.215 217.422C190.48 216.329 191.509 214.862 190.215 211.24C189.485 209.211 194.593 207.837 194.593 207.837H193.3C192.769 207.837 191.608 207.837 189.95 207.337C189.95 207.337 190.713 205.745 190.215 204.652C190.215 204.652 189.817 203.809 188.523 202.717C188.523 202.717 188.258 201.749 188.258 201.374C188.258 201 187.628 198.97 187.628 198.97C187.628 198.97 186.6 198.315 185.704 198.221C184.809 198.096 185.704 197.034 185.704 197.034C185.704 197.034 186.6 196.816 186.6 195.442C186.6 194.068 187.23 194.225 187.23 194.943L186.6 196.816C186.6 196.816 187.495 197.253 188.125 198.221H192.006C192.006 198.221 190.978 197.628 190.713 197.034L191.243 195.442H193.3C193.3 195.442 193.432 194.474 193.034 193.631C193.034 193.631 193.532 192.289 193.532 191.945C193.532 191.602 193.034 190.728 192.106 190.728C191.177 190.728 190.679 189.26 189.917 189.26C189.154 189.26 190.182 188.542 190.315 188.043C190.447 187.543 190.713 186.232 192.139 185.014C192.139 185.014 191.873 183.204 192.006 182.829C192.139 182.454 194.062 180.05 194.427 179.925C194.792 179.801 195.754 180.425 195.754 180.893C195.754 181.362 195.223 182.954 196.417 183.079C196.815 183.11 196.815 184.421 197.18 185.014C197.246 185.139 197.313 185.202 197.313 185.264C197.611 184.577 198.208 183.485 199.336 181.736C201.525 178.458 203.548 181.736 203.548 181.736C203.548 181.736 207.362 181.362 206.467 177.365C206.467 177.365 210.049 176.991 209.916 175.898C209.85 175.274 210.149 174.555 210.248 173.65C209.552 173.869 208.49 174.243 208.391 174.555C208.258 175.055 207.86 175.773 207.495 176.023C207.097 176.273 204.411 176.023 204.411 176.023C203.648 176.273 204.145 173.463 204.145 173.463L203.548 172.245C202.719 172.62 200.895 173.931 200.895 173.931L199.369 173.556C197.943 174.649 197.744 174.274 197.014 174.15C194.958 173.775 194.427 174.649 194.427 174.649L192.935 173.681C191.774 174.899 191.243 175.274 190.878 174.899C190.48 174.524 190.613 173.213 189.585 174.524C188.557 175.867 187.661 175.367 187.661 175.367L186.235 175.242L184.411 176.085C183.781 176.46 183.383 175.336 182.852 176.085C182.321 176.835 180.398 177.303 180.398 177.303C178.573 176.335 178.076 175.117 178.076 175.117C176.782 174.743 176.948 173.65 176.65 173.432C175.754 172.713 174.063 173.432 174.461 172.589C174.859 171.746 175.356 170.153 175.356 170.153L175.223 169.061H172.902C171.741 169.061 172.272 166.501 172.272 166.501C172.006 165.907 172.902 165.033 172.902 165.033L173.167 163.691L173.698 162.348C173.698 162.348 173.565 161.131 173.034 161.255C172.504 161.38 173.167 161.006 172.139 161.255C170.58 161.63 169.917 162.161 170.182 161.162C170.447 160.163 170.116 159.445 170.116 159.445C169.386 158.945 170.116 157.009 170.116 157.009C170.116 157.009 172.106 157.727 172.504 157.852C172.902 157.977 174.427 158.227 174.427 158.227C174.427 158.227 175.588 158.352 175.721 159.07C175.854 159.788 175.721 161.006 176.351 161.006C176.981 161.006 178.275 160.631 178.805 160.631C179.336 160.631 180.862 161.599 180.862 160.631V156.978C180.862 156.978 182.918 156.479 183.316 156.978C183.714 157.478 184.079 157.946 184.477 158.196C184.875 158.446 186.799 158.321 186.799 158.321C186.799 158.321 187.827 157.353 188.225 157.478C188.623 157.603 189.917 158.57 189.917 158.57L192.504 157.727L193.266 158.945L196.981 156.791C198.44 157.603 199.203 158.352 199.469 157.852C199.734 157.384 200.762 156.791 200.762 156.791C200.762 156.791 202.454 156.447 202.553 156.791C202.686 157.134 201.658 159.07 201.658 159.07C201.658 159.07 203.051 159.788 203.515 159.788C203.979 159.788 204.245 161.724 204.245 161.724C205.406 160.881 205.008 160.631 206.168 161.006C207.329 161.38 208.092 162.598 208.092 162.816C208.092 163.035 206.301 164.034 207.064 164.409C207.827 164.783 208.988 165.033 209.518 165.377C209.751 165.533 209.95 165.72 210.115 165.876C210.115 165.252 210.082 164.534 209.883 163.722L213.366 164.534C213.366 164.534 216.616 162.723 218.44 164.534C218.44 164.534 218.971 168.561 220.828 172.308V176.054H224.643L228.656 174.368C228.656 174.368 233.299 174.368 234.46 176.054L239.004 177.272L242.188 179.801C242.188 179.801 247.992 176.897 251.077 175.43L257.279 172.276C259.866 170.59 263.481 172.027 263.481 172.027L263.282 172.089ZM183.548 223.197C183.548 223.197 183.582 223.135 183.615 223.104C183.615 223.135 183.582 223.166 183.548 223.197ZM183.648 223.041C183.648 223.041 183.648 223.01 183.681 222.979C183.681 222.979 183.681 223.01 183.648 223.041ZM183.781 222.823C183.781 222.823 183.814 222.76 183.847 222.729C183.847 222.729 183.814 222.792 183.781 222.823ZM183.88 222.667C183.88 222.667 183.946 222.542 183.98 222.511C183.946 222.573 183.913 222.636 183.88 222.667ZM184.212 222.167C184.212 222.167 184.278 222.074 184.311 222.011C184.311 222.074 184.245 222.105 184.212 222.167ZM184.411 221.886C184.411 221.886 184.477 221.793 184.51 221.761C184.51 221.793 184.444 221.824 184.411 221.886ZM184.543 221.699C184.543 221.699 184.543 221.668 184.577 221.636C184.577 221.636 184.577 221.668 184.543 221.699ZM184.643 221.574C184.643 221.574 184.643 221.543 184.676 221.512C184.676 221.512 184.676 221.543 184.643 221.574ZM183.25 149.735L182.487 151.39C182.487 151.39 181.459 151.671 180.928 152.045C180.398 152.42 178.474 153.731 178.076 154.231C177.678 154.73 176.782 153.138 176.815 152.982C176.849 152.826 178.573 152.139 179.303 150.953H177.147C176.384 150.953 177.147 149.735 177.147 149.735L178.706 149.235C178.706 149.235 179.867 148.268 180.265 148.517C180.663 148.767 181.824 148.517 181.824 148.517H183.117L184.411 148.486L185.041 149.142C185.041 149.142 184.278 149.641 183.25 149.735ZM193.2 154.231C192.669 154.605 191.94 154.231 191.94 154.231V152.982L189.983 151.983C189.983 151.983 189.087 152.638 188.424 152.982C187.794 153.325 188.424 154.231 188.424 154.231C188.424 154.231 187.13 153.856 185.837 154.231C184.543 154.605 184.411 152.982 184.411 152.982C184.411 152.982 185.306 152.638 185.837 151.39L187.528 150.547L188.822 149.704L190.381 150.547L192.437 151.358H192.935L194.195 152.951C194.195 152.951 193.731 153.825 193.2 154.2V154.231ZM206.235 155.948C206.102 156.666 205.074 155.948 204.676 155.948C204.278 155.948 203.382 154.137 203.25 154.231C203.117 154.356 201.061 154.356 200.53 154.231C199.999 154.106 198.739 154.231 198.739 154.231C198.739 154.231 197.445 152.888 196.782 151.421C196.119 149.953 198.739 150.828 198.739 150.828L201.193 149.735L203.25 150.234V152.545C203.25 152.545 204.809 152.919 205.306 153.013C205.837 153.107 206.334 155.23 206.202 155.948H206.235ZM216.815 158.227C216.815 158.227 216.052 157.884 215.522 157.759C214.991 157.634 213.963 158.851 213.299 157.759C213.034 157.322 213.2 156.541 213.299 156.26C213.399 155.979 213.299 154.231 213.299 154.231C213.299 154.231 214.095 154.949 214.261 156.26H216.284C216.284 156.26 217.313 156.666 216.815 158.227Z" fill="#CCCCCC"/>
<path d="M197.013 185.389C197.013 185.389 196.848 185.639 196.781 186.076C196.781 186.076 196.781 185.889 197.013 185.389Z" fill="#CCCCCC"/>
<path d="M80.2321 128.598C83.0845 126.413 84.6102 125.445 85.6384 125.195C86.6666 124.946 87.4294 125.695 86.9319 126.413C86.4012 127.131 84.3449 130.316 84.3449 130.316L83.8474 133.001L79.4693 137.122L78.9386 140.775L76.6169 141.992C74.8259 144.178 74.8259 146.363 74.8259 146.363C74.5605 149.516 74.5605 150.984 74.5605 150.984L73.267 153.419C69.6518 155.136 68.3583 156.572 68.3583 156.572L67.3301 158.289V163.16C69.1543 163.41 70.4478 164.627 70.4478 164.627L68.8889 167.063L67.3301 169.498C69.6518 171.433 70.4478 174.368 70.4478 174.368C69.1543 176.054 70.4478 180.675 70.4478 180.675L72.5042 183.11C72.5042 183.11 73.2338 183.891 74.063 183.766V179.207C76.3847 177.272 75.8872 176.304 76.6501 175.804C77.0149 175.555 77.6119 175.336 78.1758 175.149C79.2703 174.181 80.597 173.026 81.8242 172.027V168.249C80.2653 166.313 81.8242 162.91 81.8242 162.91V161.693C81.8242 161.693 81.7247 161.88 81.6252 162.098C81.6252 162.161 81.5588 162.192 81.5588 162.223C81.4262 162.473 81.2935 162.723 81.2935 162.754C81.2935 162.754 81.4262 162.504 81.5588 162.223C81.5588 162.192 81.592 162.13 81.6252 162.098C81.7578 161.88 81.8242 161.693 81.8242 161.693L83.1177 159.257C83.1177 159.257 83.0514 159.257 82.9519 159.195C82.8855 159.195 82.8192 159.132 82.7528 159.132C82.6533 159.07 82.5538 159.039 82.5538 159.07C82.5538 159.07 82.6533 159.07 82.7528 159.132C82.8192 159.132 82.8855 159.195 82.9519 159.195C83.0514 159.226 83.1177 159.257 83.1177 159.257C84.4112 159.757 85.4394 158.289 85.4394 158.289C85.4394 156.604 83.8805 156.604 83.8805 156.604C82.3217 156.604 81.5588 153.7 81.5588 153.7L81.0282 150.047L82.0563 146.894L84.1127 144.209L85.4062 141.305C87.9933 140.338 90.5803 138.87 90.5803 138.87L92.6367 140.556C94.4277 139.089 95.2237 137.153 95.2237 137.153V133.25C97.2801 130.815 99.1043 128.63 99.1043 128.63C99.1043 127.412 101.426 125.726 101.426 125.726C101.426 124.509 103.482 121.355 103.482 121.355C106.335 120.637 107.86 121.355 107.86 121.355L112.769 119.669C113.035 118.202 117.545 118.452 117.545 118.452L118.706 115.767C118.706 115.767 121.791 113.55 122.056 113.425C122.321 113.332 125.406 113.425 125.406 113.425L127.197 112.832L130.049 110.116C131.343 110.397 132.636 111.614 132.636 111.614L131.874 113.3L135.754 114.768L139.867 115.736C140.895 114.018 141.691 112.332 141.691 112.332L144.543 111.833L147.13 113.394L144.543 115.236C146.865 116.922 148.424 116.703 148.424 116.703C149.452 114.518 151.509 113.394 151.509 113.394L153.067 110.085H155.92V116.672L158.241 118.858V122.261L161.326 123.728V126.632C163.648 127.35 165.207 125.164 165.207 125.164L167.263 122.979C166.235 121.293 165.439 120.075 165.439 120.075C165.969 118.14 164.941 116.672 164.941 116.672L164.145 115.455C163.88 113.019 164.676 111.552 164.676 111.552C164.676 110.147 164.145 110.147 164.245 109.96C163.78 110.303 163.382 110.584 164.278 109.897C164.344 109.835 164.477 109.741 164.676 109.585C167.263 107.649 167.263 106.182 167.263 106.182C169.319 106.9 172.172 106.182 172.172 106.182C173.963 104.496 175.024 104.964 175.024 104.964L178.109 103.747H180.961C183.017 101.561 182.752 103.747 182.752 103.747L185.604 102.779L189.717 99.1261V96.6908C187.661 95.723 184.311 96.6908 184.311 96.6908C182.752 97.4089 179.668 96.2537 179.668 96.2537H176.583C176.052 93.7561 178.142 92.5697 178.142 92.5697L180.994 88.9169C182.288 87.949 183.913 86.8875 184.609 87.2309C186.666 88.1988 189.784 87.949 189.784 87.949C190.314 86.4816 193.399 86.0133 193.399 86.0133L195.455 87.4807L199.07 87.2309C200.629 85.2952 203.349 84.3274 203.349 84.3274C201.923 82.3917 198.838 81.4239 198.838 81.4239C201.657 80.7058 203.349 81.4239 203.349 81.4239L203.979 78.7389C203.979 78.7389 203.747 78.6764 203.482 78.5828C203.482 78.5828 203.482 78.5828 203.448 78.5828C203.382 78.5828 203.316 78.5515 203.283 78.5203C202.951 78.4267 202.652 78.333 202.619 78.3018C202.619 78.3018 202.951 78.3954 203.283 78.5203C203.349 78.5203 203.382 78.5515 203.448 78.5828C203.448 78.5828 203.448 78.5828 203.482 78.5828C203.747 78.6764 203.979 78.7389 203.979 78.7389C207.064 79.7067 207.594 81.6424 207.594 81.6424L208.888 83.1098L213.399 82.6415C215.621 81.6736 216.881 81.6736 216.881 81.6736C218.938 81.9234 220.496 82.1732 220.496 82.1732C222.321 81.6736 223.316 83.3908 223.316 83.3908L218.142 85.826C216.35 86.5441 215.057 85.1079 215.057 85.1079C213.498 84.3898 211.707 85.5762 211.707 85.5762C211.442 87.2934 212.967 87.7617 213.365 87.7617H213.432H212.967C213.365 87.7617 215.322 90.1969 215.322 90.1969L210.414 91.4145L207.329 90.915C205.538 92.6009 204.477 92.6321 204.477 92.6321L203.316 94.318C201.624 95.2859 199.568 95.2859 199.568 95.2859L199.303 96.7533C201.624 98.2207 203.316 98.4704 203.316 98.4704C204.211 99.688 203.316 100.656 203.316 100.656L207.594 101.624C207.594 101.624 214.394 99.0012 218.307 97.9084C222.221 96.8157 224.51 95.2547 224.51 95.2547L228.357 88.0739H234.161C239.966 88.0739 242.287 86.9812 244.045 85.8884C245.803 84.7957 244.045 81.5175 238.871 75.4919C235.952 72.0888 239.966 70.0283 238.871 64.6895C237.777 59.3508 238.805 63.4719 232.403 64.6895C230.679 65.0329 222.52 65.6574 219.037 60.7557C217.379 58.4453 216.118 59.663 213.233 58.5078C210.314 57.3526 207.992 60.7557 203.382 58.5078C198.739 56.2599 189.983 61.3177 186.533 61.3177C183.084 61.3177 180.696 59.663 176.881 58.5078C173.067 57.3526 165.571 65.6886 164.411 61.3177C164.411 61.3177 157.445 61.3177 154.726 64.7207C153.598 66.1257 145.24 68.9668 142.487 70.9024C139.734 72.8381 133.267 73.8684 133.267 73.8684C133.267 73.8684 130.149 78.8013 123.913 83.703L124.577 89.9159C124.577 89.9159 125.738 91.1023 126.235 91.8204C126.733 92.5385 127.595 91.196 127.595 91.196L129.353 90.7277C129.353 90.7277 131.078 89.7286 131.177 89.3539C131.277 88.9793 131.675 88.0739 131.94 87.9802C132.238 87.8866 134.361 85.7948 134.361 85.7948L134.063 84.5147L136.583 82.86L137.844 82.4854L138.706 83.9527C138.706 83.9527 141.227 83.5781 141.592 83.3908C141.99 83.2034 144.311 83.6718 144.311 83.6718C144.311 83.6718 145.572 83.2034 145.671 82.3917L147.794 81.1117C147.794 81.1117 146.633 80.1126 146.633 79.8316C146.633 79.5506 148.457 78.2706 149.452 78.2706C149.85 78.2706 151.177 78.2706 151.177 78.2706L151.873 77.1778L150.613 75.7105C150.613 75.7105 151.873 74.3367 152.271 73.8996C152.669 73.4313 153.731 72.6196 153.731 72.6196C153.731 72.6196 155.489 73.1816 156.55 72.9006L158.474 73.1816L159.933 72.3698L162.056 70.3717L163.88 71.1834L168.258 69.6224C168.258 69.6224 168.656 68.998 168.822 68.436C169.021 67.874 170.746 68.155 171.542 68.0614C172.304 67.9677 173.1 67.4369 173.1 67.4369L173.001 64.5959C173.001 64.5959 174.361 64.7832 175.223 65.4076C176.085 66.032 175.787 65.9696 176.185 66.594C176.583 67.2184 177.047 67.4057 177.744 68.5921C178.407 69.7785 176.682 69.5912 176.682 69.5912V71.7766L176.019 72.8694C176.019 72.8694 174.095 73.1504 173.996 73.4313C173.896 73.7123 172.238 75.5231 171.376 75.9914L170.115 78.2706H167.694L165.936 79.8316L164.178 81.299L164.974 82.579L163.714 84.4835C163.714 84.4835 164.676 85.4826 164.974 85.5762C165.273 85.6699 166.334 86.4816 166.334 86.4816C166.334 86.4816 165.638 88.0427 166.102 88.2924C166.6 88.5734 166.102 89.3852 166.102 89.3852L164.344 90.5716V91.9453L163.847 92.8507L162.288 93.3814L160.928 95.3171C160.928 95.3171 158.606 95.3796 157.744 96.1289L156.583 97.846C156.583 97.846 155.223 97.9397 154.46 97.7523C153.698 97.565 153.3 97.7523 153.001 98.0333C152.703 98.3143 151.442 98.5953 151.442 98.5953L149.519 97.7836C149.519 97.7836 148.855 98.408 148.855 98.689C148.855 98.97 146.832 99.688 146.832 99.688C146.832 99.688 145.804 100.781 145.605 100.781C145.406 100.781 144.643 100.874 143.283 100.781C141.923 100.687 140.961 100.188 140.63 99.9066C140.298 99.6256 139.436 99.3758 139.038 99.0324C138.64 98.7202 138.474 97.6587 138.407 96.9718C138.374 96.285 137.014 95.8791 136.086 95.4108C135.157 94.9425 135.257 96.004 135.356 96.1913C135.456 96.3786 134.394 98.4704 134.394 98.4704L133.466 99.969C133.466 99.969 131.675 100.375 131.476 100.437C131.277 100.469 129.784 101.312 129.784 101.312C129.784 101.312 127.595 102.186 127.363 102.186C127.131 102.186 127.562 101.062 127.562 101.062C127.562 101.062 128.822 99.1885 129.054 99.0948C129.286 99.0012 126.766 99.5944 126.6 99.6568C126.401 99.688 125.041 100.063 125.041 100.063C125.041 100.063 117.91 105.495 114.262 106.182L113.831 110.085H116.152C116.152 110.085 118.474 109.585 117.18 112.27C117.18 112.27 115.389 114.955 113.565 116.641C113.565 116.641 111.244 115.923 110.978 113.737C110.978 113.737 112.769 112.52 113.831 110.085C113.831 110.085 110.978 113.737 104.345 116.391C104.345 116.391 103.516 121.262 95.6217 125.195C95.6217 125.195 95.2237 133.157 92.1392 133.157C92.1392 133.157 91.2105 135.03 88.5903 133.157L92.1392 126.85V120.419C92.1392 120.419 92.305 119.357 92.2387 118.015C92.1392 118.015 92.0728 118.015 92.0065 118.046C91.3763 118.264 88.5903 119.857 88.5903 119.857L88.6566 118.233C88.6566 118.233 88.5239 116.766 88.6566 116.641C88.7893 116.516 90.6798 115.361 91.4095 114.893C91.4427 114.893 91.4758 114.861 91.509 114.83C90.9783 113.769 90.0828 112.957 88.5903 112.894L87.0978 116.672L81.1608 124.134C81.1608 124.134 78.6069 127.756 76.4842 130.565C77.5124 129.129 80.2653 128.567 80.2653 128.567L80.2321 128.598ZM170.248 83.2971L171.309 82.6415L172.669 80.9243L174.328 79.1135C174.328 79.1135 173.067 78.3954 172.968 78.3642C172.868 78.3642 174.328 76.6471 174.527 76.2724C174.726 75.8978 175.19 74.7114 175.19 74.4616C175.19 74.2119 175.754 74.368 176.848 74.4616C177.91 74.5553 179.369 73.3689 179.668 73.0879C179.966 72.8069 180.43 70.9024 180.43 70.9024H182.255L184.576 71.3708C184.576 71.3708 184.178 72.5572 184.377 73.0879C184.576 73.6499 184.178 74.368 184.178 74.368C184.178 74.368 183.581 75.5544 183.515 76.0227C183.415 76.491 183.813 77.1154 184.112 77.2091C184.41 77.3027 184.51 79.1135 184.51 79.1135L183.913 80.2063L185.571 80.9243L184.908 82.579C184.908 82.579 184.344 83.2034 183.548 83.6093C182.785 84.0152 182.188 84.0152 182.188 84.0152C182.188 84.0152 181.127 85.0143 179.966 85.3889C179.601 85.5138 178.606 86.5753 177.91 86.7626C177.18 86.9499 176.583 87.5744 176.119 87.949C175.621 88.3237 172.338 87.949 172.338 87.949L171.84 86.2319C171.84 86.2319 171.177 86.0445 170.779 86.2319C170.381 86.4192 170.281 84.8581 170.281 84.8581V83.2971H170.248Z" fill="#CCCCCC"/>
<path d="M196.715 187.668V186.076C196.649 186.732 196.682 187.325 196.715 187.668Z" fill="#CCCCCC"/>
<path d="M52.7691 192.32L52.5038 193.444C52.4375 195.255 52.4043 197.097 52.4043 198.939C52.5038 196.66 52.6365 194.443 52.7691 192.351V192.32Z" fill="#CCCCCC"/>
<path d="M225.571 261.037C226.599 262.723 225.305 263.941 225.305 263.941L227.892 266.844C228.655 268.78 227.892 270.497 227.892 270.497H224.543L222.718 271.964L220.927 274.4C220.397 276.335 217.047 277.303 217.047 277.303C215.488 280.456 216.019 282.174 216.019 282.174C215.256 282.736 214.725 283.204 214.327 283.579L213.83 285.702C214.526 287.263 213.299 287.981 213.299 287.981L216.151 297.097C216.947 296.91 217.544 296.816 217.71 296.847C218.241 296.972 218.97 300.001 218.97 300.001H217.047L218.97 307.525H222.353L223.15 308.867C223.15 308.867 222.951 309.086 222.851 309.18C223.017 310.085 223.15 311.49 223.15 313.457C223.15 318.046 227.295 313.457 227.295 313.457C227.295 313.457 231.176 315.049 230.081 316.079C228.987 317.11 235.421 317.235 236.98 313.457C236.98 313.457 242.387 311.771 245.106 313.457L247.428 318.452L247.826 323.073L248.589 327.694C248.589 327.694 252.834 327.444 252.469 323.073L252.071 318.452V310.803L255.952 313.426L260.595 318.421L261.391 323.042H267.958L270.91 327.662C270.91 327.662 274.161 325.602 278.041 324.884C278.041 324.884 281.524 325.602 282.187 323.073L286.565 320.887C286.565 320.887 290.446 318.327 289.65 314.331C289.351 313.457 289.285 313.27 289.451 313.145C289.418 312.864 289.451 312.895 289.517 313.113C289.816 312.957 290.512 312.77 291.607 310.803L293.53 307.525C293.53 307.525 292.768 303.404 295.852 299.751L298.937 295.38L300.993 288.824V282.392L308.887 276.086C308.887 276.086 309.019 271.34 308.887 270.997C308.754 270.622 305.537 263.347 305.537 263.347L311.739 254.98V249.142L305.935 244.022L301.026 248.393C301.026 248.393 292.768 251.671 290.446 253.856C288.124 256.042 285.04 252.046 285.04 252.046L282.187 248.393L271.474 253.856V249.86H263.348V253.856L257.544 257.509L254.061 253.856H249.02C249.02 253.856 245.537 251.671 242.453 253.856L238.871 257.884V261.537H233.166L230.148 265.876C230.148 265.876 226.964 258.571 224.509 258.227C222.519 257.946 223.15 259.976 221.027 261.006H223.614C224.145 259.32 225.67 261.006 225.67 261.006L225.571 261.037ZM223.382 281.362C223.382 281.362 221.69 283.641 221.458 284.141C221.193 284.64 219.534 283.891 218.871 284.141C218.208 284.39 218.208 282.455 218.208 282.455V279.894L219.501 278.427H222.088L224.41 279.52L223.382 281.393V281.362Z" fill="#B3B3B3"/>
<path d="M289.617 314.362C290.114 315.736 289.683 313.769 289.484 313.145C289.484 313.145 289.451 313.145 289.418 313.176C289.418 313.394 289.517 313.738 289.617 314.362Z" fill="#B3B3B3"/>
<path d="M300.96 95.3171C299.401 93.6311 299.932 92.6321 299.932 92.6321C297.61 91.4145 296.582 89.229 296.582 89.229C297.876 88.5109 298.639 86.3255 298.639 86.3255C297.08 84.8581 294.26 85.1079 294.26 85.1079L291.408 84.8581L289.584 82.9224C288.29 81.7048 287.527 79.051 287.527 79.051L285.736 80.2686H280.828L277.478 79.051L276.184 80.2686H273.597L271.276 79.051L269.717 81.736L266.632 80.3935L265.604 83.2034C266.367 85.3888 265.604 86.8562 265.604 86.8562L263.282 90.2593C265.106 90.7588 265.106 93.4126 265.106 93.4126C267.428 94.88 268.191 96.8157 268.191 96.8157C270.513 97.7835 271.541 100.468 272.337 100.219C273.1 99.969 277.246 100.219 277.246 100.219L280.861 103.591H284.211C286.002 105.776 290.148 106.276 290.148 106.276H297.113V102.154C299.435 100.469 300.993 98.7514 300.993 98.7514C299.202 96.8157 300.993 95.3483 300.993 95.3483L300.96 95.3171Z" fill="#808080"/>
<path d="M110.945 113.769C111.211 115.954 113.532 116.672 113.532 116.672C115.357 114.986 117.148 112.301 117.148 112.301C118.441 109.616 116.119 110.116 116.119 110.116H113.798C112.77 112.551 110.945 113.769 110.945 113.769Z" fill="#808080"/>
<path d="M330.312 178.895C330.312 178.895 330.446 179.052 330.512 179.114C330.446 179.052 330.379 178.958 330.312 178.895Z" fill="#4D4D4D"/>
<path d="M330.678 179.27C330.678 179.27 330.778 179.396 330.812 179.427C330.778 179.364 330.711 179.333 330.678 179.27Z" fill="#4D4D4D"/>
<path d="M181.823 220.481C181.823 220.481 181.957 220.388 181.991 220.356C181.924 220.388 181.857 220.45 181.823 220.481Z" fill="#4D4D4D"/>
<path d="M181.657 220.606C181.657 220.606 181.758 220.544 181.825 220.481C181.758 220.513 181.724 220.544 181.657 220.606Z" fill="#4D4D4D"/>
<path d="M203.35 78.6145C203.35 78.6145 203.216 78.583 203.183 78.5515C203.25 78.5515 203.283 78.583 203.35 78.6145Z" fill="#4D4D4D"/>
<path d="M81.5591 162.067C81.5591 162.067 81.4922 162.161 81.4922 162.192C81.4922 162.161 81.5257 162.098 81.5591 162.067Z" fill="#4D4D4D"/>
<path d="M82.8873 159.164C82.8873 159.164 82.7535 159.101 82.6865 159.101C82.7535 159.101 82.8204 159.133 82.8873 159.164Z" fill="#4D4D4D"/>
<path d="M75.1902 182.767L75.6877 177.334C75.6877 177.334 76.7158 176.366 78.142 175.117C77.6114 175.305 77.0144 175.523 76.6163 175.773C75.8535 176.241 76.351 177.24 74.0293 179.176V183.734C74.4273 183.672 74.8253 183.422 75.157 182.798L75.1902 182.767Z" fill="#4D4D4D"/>
<path d="M91.0781 177.334L93.6652 179.863L92.3717 176.991C91.7083 177.24 91.1113 177.334 91.1113 177.334H91.0781Z" fill="#4D4D4D"/>
<path d="M181.425 220.763C181.425 220.763 181.558 220.669 181.658 220.606C181.591 220.669 181.525 220.7 181.425 220.763Z" fill="#4D4D4D"/>
<path d="M77.1474 272.932C77.1474 272.932 78.4409 272.683 81.2933 273.182C81.2933 273.182 82.0562 276.335 83.8804 277.303L85.4392 279.988C85.4392 279.988 86.2021 281.674 88.7891 283.641L91.6415 286.545L95.2567 286.794C95.2567 286.794 97.5784 287.512 97.8438 288.73C98.1091 289.948 101.459 289.448 101.459 289.448L106.368 291.883C106.368 291.883 107.131 293.351 109.485 293.351C109.485 293.351 110.779 296.036 112.835 296.036L114.66 298.221L118.772 299.688C118.772 299.688 121.094 299.938 122.653 299.439C122.653 299.439 122.653 297.004 120.596 296.036C120.596 296.036 118.009 294.35 117.479 292.133L120.066 290.915L122.653 291.415C122.653 291.415 123.184 293.101 125.505 293.351C125.505 293.351 128.092 294.568 129.12 295.068C130.149 295.567 130.945 294.568 128.855 292.633L124.975 290.697C124.975 290.697 124.975 289.479 126.268 287.294C126.268 287.294 127.296 287.294 128.59 288.511C129.883 289.729 129.618 288.761 131.94 287.544C131.94 287.544 133.731 287.294 135.82 285.858V281.955C135.82 281.955 138.673 280.987 140.994 282.455C141.625 282.86 144.61 284.141 144.61 284.141L147.959 282.923C147.959 282.923 150.016 284.39 149.751 286.076C149.751 286.076 148.457 288.012 149.751 290.197C149.751 290.197 153.631 291.883 155.19 292.633L154.925 295.536L152.868 298.44L148.988 297.722C148.988 297.722 148.225 300.157 150.281 301.593C150.281 301.593 150.812 304.278 152.603 306.463V308.899L157.777 311.334L158.308 314.237L162.951 315.705C162.951 315.705 167.329 315.705 168.39 313.519C168.39 313.519 172.006 313.988 172.769 315.705L178.175 314.237L176.616 311.084H180.231L182.288 314.237L185.107 310.834L186.135 307.431C186.135 307.431 184.079 306.214 183.548 304.746C183.017 303.279 182.52 302.061 181.989 301.093C181.458 300.126 180.696 298.408 180.696 298.408L181.989 295.723L178.639 294.506H172.702C171.906 294.506 172.702 291.821 172.702 291.821L169.087 289.885L165.969 288.668L163.382 286.482L165.704 283.329V280.425C165.704 280.425 168.556 280.176 170.878 277.99L170.347 275.805L167.23 274.587C167.23 274.587 168.026 270.216 168.258 269.498C168.523 268.78 169.021 267.313 169.021 266.563C169.021 265.814 171.077 263.66 171.077 263.66L173.929 262.692L177.279 258.571L182.686 254.45L184.477 257.603L183.183 260.506L180.099 264.159C179.07 264.409 177.511 262.942 176.749 262.942C175.986 262.942 174.692 265.127 173.399 266.345L174.427 269.498L177.014 268.53L177.777 272.651C177.777 272.651 180.099 275.336 178.307 276.772L179.866 279.457L182.951 279.208L184.742 281.893L187.329 283.36L193.531 282.392L196.881 283.86L194.294 286.045C194.294 286.045 197.909 286.763 198.672 287.263C199.435 287.762 203.183 289.948 203.183 289.948C203.183 289.948 206.665 289.698 208.987 289.948L213.233 288.012C213.233 288.012 214.46 287.294 213.763 285.733C213.631 285.452 213.465 285.171 213.233 284.859C213.233 284.859 213.432 284.422 214.261 283.61C214.659 283.235 215.223 282.736 215.952 282.205C215.952 282.205 215.422 280.488 216.98 277.334C216.98 277.334 220.33 276.367 220.861 274.431L222.652 271.996L224.476 270.528H227.826C227.826 270.528 228.589 268.842 227.826 266.875L225.239 263.972C225.239 263.972 226.533 262.754 225.504 261.068C225.504 261.068 223.946 259.351 223.448 261.068H220.861H220.596C220.596 261.068 218.539 261.318 218.009 258.883C217.876 258.165 215.687 255.979 215.687 255.979C215.687 255.979 213.1 256.947 213.199 257.197C213.332 257.447 211.01 255.012 211.01 255.012C211.01 255.012 209.982 251.858 209.452 249.673C209.452 249.673 210.48 247.238 211.773 244.802L208.423 243.116L211.508 240.681L208.656 238.746C208.656 238.746 205.306 237.278 204.145 237.528L203.117 240.681H198.34C198.34 240.681 196.782 239.713 195.753 239.214C194.725 238.714 194.46 238.714 196.284 237.028L198.871 234.343C198.871 234.343 196.284 234.593 195.256 234.343C194.228 234.094 190.878 231.44 190.878 231.44C190.878 231.44 189.85 233.376 189.85 234.125C189.85 234.874 186.5 233.875 185.704 232.439C185.704 232.439 183.647 230.503 182.089 230.503C180.53 230.503 182.089 230.503 179.236 232.439C179.236 232.439 179.137 232.345 178.971 232.189C178.307 231.565 176.45 229.91 174.593 228.536C174.593 228.536 174.858 225.851 174.858 225.133C174.858 224.415 178.208 222.948 181.06 221.012L182.089 219.326C182.487 218.671 184.908 217.141 184.908 217.141L185.173 211.302V208.867C185.173 208.149 186.201 206.682 185.173 206.182C184.145 205.683 181.558 203.997 181.558 201.811C181.558 199.626 181.293 199.064 181.293 199.064C181.293 199.064 178.971 199.407 177.147 198.002C176.351 197.378 175.853 196.941 175.356 194.755C175.09 193.694 172.006 193.538 172.006 193.538L173.299 191.602L173.83 188.699C173.83 188.699 172.039 186.513 171.243 186.014C170.48 185.514 171.243 183.329 171.243 183.329C171.243 183.329 173.83 180.893 175.389 179.676V175.773C175.389 175.773 174.626 174.556 172.304 174.056C171.309 173.837 168.954 176.96 167.13 176.491L167.395 174.056C167.395 174.056 166.102 174.306 164.543 174.306C162.984 174.306 161.956 175.773 161.956 175.773C161.956 175.773 158.341 176.023 156.782 176.273C155.223 176.522 152.139 179.926 152.139 179.926L151.608 177.74L154.195 175.055C154.195 175.055 155.488 172.37 154.958 170.185L157.545 167.999L156.782 165.096C156.782 165.096 158.838 163.41 158.838 161.443C158.838 161.443 160.629 158.289 160.895 155.854L159.336 157.072C157.777 158.289 156.218 158.539 156.218 158.539C156.218 158.539 155.19 157.322 153.134 156.604C153.134 156.604 152.371 158.289 150.281 160.506C150.281 160.506 148.988 159.788 146.931 158.071C146.931 158.071 144.875 159.788 143.581 160.256C143.581 160.256 142.553 161.724 139.701 160.506C139.701 160.506 137.379 159.538 135.82 157.103L136.318 153.95C136.318 153.95 137.877 151.515 140.198 149.579C140.198 149.579 138.639 147.643 138.639 145.676C138.639 145.676 140.198 142.273 142.255 140.587C142.255 140.587 141.227 137.434 140.961 136.716C140.696 135.998 148.192 132.095 148.192 132.095L153.1 132.813L155.157 133.531L160.563 131.596L162.122 134.999C162.122 134.999 164.709 133.282 167.296 134.999L171.409 134.031C171.409 134.031 173.996 134.999 174.759 136.466C174.759 136.466 174.493 139.619 176.052 140.837L175.521 143.023C175.521 143.023 178.374 144.24 181.193 143.99L182.221 146.675L185.074 145.458C185.074 145.458 187.13 145.208 189.186 144.49L192.271 144.24L195.886 144.74L199.501 143.522C199.501 143.522 203.879 142.804 204.012 141.586C204.012 141.586 209.319 139.651 210.347 139.651C211.375 139.651 213.034 138.246 213.034 138.246C213.034 138.246 215.753 134.53 217.81 133.063L217.544 135.498C217.544 135.498 219.103 135.03 221.16 134.031C221.16 134.031 222.453 133.063 222.951 131.596C223.017 131.471 223.05 131.346 223.116 131.252C223.614 130.409 224.41 131.689 225.803 132.564C225.803 132.564 225.538 134.031 223.481 134.999C223.481 134.999 221.425 135.967 219.335 138.215C218.307 139.338 217.014 138.87 217.777 140.587C217.777 140.587 218.042 143.023 217.014 144.958C217.014 144.958 214.957 144.708 214.194 146.644L210.314 149.329L214.194 151.015L217.81 151.983C217.81 151.983 220.662 151.733 221.16 153.201C221.16 153.201 220.397 155.386 221.922 157.103L224.509 157.353C224.509 157.353 225.04 159.289 227.594 159.289L228.888 162.692L228.622 165.845C228.622 165.845 229.916 166.344 231.972 165.345C231.972 165.345 234.028 164.128 234.824 164.128C235.62 164.128 237.677 164.596 238.44 164.128C239.203 163.628 239.468 166.313 240.231 168.499C240.231 168.499 238.44 168.998 237.644 168.998C236.848 168.998 237.909 170.216 238.407 171.184C238.904 172.152 241.756 170.715 241.756 170.715L243.813 168.53C244.343 167.968 247.163 168.28 247.163 168.28L250.513 169.498L250.247 167.312C250.247 167.312 251.806 165.845 253.862 167.312L255.653 164.409C255.653 164.409 255.388 166.844 256.947 166.344L257.71 169.029L260.297 169.748L262.884 172.183C262.884 172.183 259.269 170.715 256.682 172.433C256.682 172.433 257.975 174.368 256.416 176.803L259.003 179.239L256.416 182.392L257.975 186.513C257.975 186.513 261.856 186.763 264.443 186.014L267.262 185.295C267.262 185.295 269.318 183.828 269.849 181.643C269.849 181.643 273.73 179.457 275.521 180.925C275.521 180.925 278.871 181.643 280.429 180.425C280.429 180.425 281.192 179.207 280.429 177.522L284.808 178.021C284.808 178.021 288.423 178.739 286.864 179.488C286.864 179.488 285.57 180.706 282.983 181.174C282.983 181.174 281.69 182.86 281.69 185.046C281.69 185.046 282.22 189.167 281.69 191.134C281.69 191.134 283.481 193.069 286.068 193.069C287.627 193.069 288.92 194.755 288.92 194.755C288.92 194.755 292.27 196.941 292.005 197.659C291.739 198.377 295.885 197.909 296.648 195.973L300.529 193.288L302.85 194.506C302.85 194.506 306.996 195.224 306.731 192.57H309.318L312.17 188.449H308.025L309.583 184.796L309.053 182.361L305.968 181.643L304.94 179.457L306.234 177.74L305.205 174.837L302.353 173.369C302.353 173.369 300.529 172.401 298.738 173.369C298.738 173.369 296.151 172.401 293.564 172.401C293.564 172.401 289.451 173.369 287.361 172.401C287.361 172.401 284.509 171.433 282.983 173.119L279.368 172.87C279.368 172.87 277.577 171.402 276.018 169.716V167.031L271.872 164.128L271.607 160.225C271.607 160.225 269.285 157.54 267.229 156.323L268.257 151.702L268.788 149.017C268.788 149.017 266.466 147.799 267.494 145.864C267.494 145.864 268.788 146.582 270.844 146.113C270.844 146.113 271.109 144.896 272.9 143.928C272.9 143.928 273.166 146.831 275.222 146.613L277.279 144.427C278.672 142.96 279.866 144.178 279.866 142.242C279.866 142.242 281.922 141.024 283.481 140.556L283.746 137.653C283.746 137.653 282.453 136.435 279.866 134.749C279.866 134.749 278.041 130.378 275.985 128.442C275.421 127.912 273.929 125.757 273.663 123.104C273.663 123.104 275.454 122.136 277.776 122.854C277.776 122.854 278.804 124.071 278.539 125.289C278.274 126.507 281.657 125.289 281.657 125.289C281.657 125.289 283.448 125.039 285.272 127.475C285.604 128.099 285.637 128.193 285.703 128.068C286.002 128.442 285.935 128.286 285.736 128.005C285.836 127.787 286.035 127.381 286.798 127.256C286.798 127.256 288.854 127.506 288.356 129.441C288.356 129.441 290.413 129.691 291.209 129.691C292.005 129.691 290.678 133.594 290.446 134.312C290.181 135.03 288.622 139.651 288.622 141.118L289.119 143.803C289.119 143.803 289.65 145.988 289.65 146.956C289.65 147.924 292.734 148.424 292.734 148.424L295.322 147.706C295.322 147.706 299.202 149.641 300.496 150.859L296.35 150.609L295.056 153.513L296.615 157.415C296.615 157.415 298.671 156.447 299.467 156.447C300.263 156.447 302.817 157.915 302.817 157.915C302.817 157.915 306.167 162.785 307.726 162.036C309.285 161.318 307.726 162.036 309.55 162.754C311.341 163.472 309.55 162.754 311.109 163.004C311.109 163.004 313.165 163.254 314.724 163.503C314.724 163.503 316.515 161.568 318.34 162.536C318.34 162.536 319.898 162.536 319.898 161.318C319.898 161.318 321.457 159.851 323.248 161.068C323.248 161.068 326.598 160.1 326.864 162.286C326.864 162.286 328.92 163.503 330.479 165.439H327.361L324.509 167.125L320.628 169.81C320.628 169.81 322.95 170.06 322.452 172.495L325.537 175.898C325.537 175.898 327.328 176.148 329.65 178.802L332.734 179.769C332.734 179.769 336.084 178.552 336.88 178.302C337.643 178.052 336.383 177.084 337.411 175.617L338.174 170.996L336.615 169.061C336.615 169.061 338.174 166.875 339.202 165.408L337.908 162.723L340.761 159.819L337.411 158.133V155.448L335.189 147.924L334.857 145.489C334.857 145.489 335.62 144.271 334.857 142.804C334.393 141.93 333.298 142.304 330.479 140.619C330.479 140.619 326.864 137.715 327.129 135.748C327.129 135.748 328.92 134.031 327.129 132.595V128.723C327.129 128.723 326.101 128.005 323.281 127.006L318.903 125.32C318.903 125.32 316.051 121.667 315.786 119.982L312.933 119.014C312.933 119.014 310.877 117.796 308.29 119.014C308.29 119.014 308.29 120.231 305.703 120.949L303.116 120.231L300.529 118.764L296.648 116.828L292.502 118.545L291.474 116.828C291.474 116.828 287.594 114.643 285.006 115.611C285.006 115.611 281.889 116.578 281.657 116.828C281.391 117.078 277.776 115.611 276.483 113.519C276.483 113.519 274.426 114.393 271.839 113.519C271.839 113.519 268.224 114.393 265.637 116.828C265.637 116.828 263.846 116.36 262.818 116.828C261.789 117.328 260.496 116.828 260.496 116.828C260.496 116.828 258.174 114.143 257.411 111.958C257.411 111.958 253.796 110.022 252.237 108.305L254.294 106.369L251.707 104.184C251.707 104.184 249.65 105.152 247.826 106.369L244.476 103.934L246.035 102.217L242.154 101.249C242.154 101.249 239.567 99.7817 238.539 101.499C238.539 101.499 235.952 101.998 237.776 103.435C237.776 103.435 237.014 105.152 237.776 106.338H240.629L244.244 108.055V110.209C244.244 110.209 246.3 111.458 247.859 113.519C247.859 113.519 246.3 112.676 245.007 113.519L242.154 112.208C242.154 112.208 240.596 112.457 240.861 114.643L240.596 116.828C240.596 116.828 244.974 118.296 246.035 120.231L242.917 120.949C242.917 120.949 241.126 120.231 238.771 119.014L235.421 118.046L232.072 119.263L228.954 119.014L225.073 120.949V114.643C225.073 114.643 223.017 113.175 222.752 113.519C222.486 113.862 220.961 111.458 220.165 110.209C220.165 110.209 218.871 109.772 217.312 108.055L215.753 106.338L218.871 104.402C218.871 104.402 218.108 102.716 215.521 102.716C215.521 102.716 213.199 103.216 210.612 102.966L206.997 101.749L202.719 100.781C202.719 100.781 203.614 99.8129 202.719 98.5953C202.719 98.5953 201.027 98.3456 198.705 96.8782L198.971 95.4108C198.971 95.4108 201.027 95.4108 202.719 94.4429L203.879 92.757C203.879 92.757 204.908 92.757 206.732 91.0399L209.816 91.5394L214.725 90.3218C214.725 90.3218 212.768 87.8866 212.37 87.8866H212.768C212.37 87.8866 210.845 87.3871 211.11 85.7011C211.11 85.7011 212.934 84.4835 214.46 85.2328C214.46 85.2328 215.753 86.7002 217.544 85.9509L222.718 83.5157C222.718 83.5157 221.69 81.8297 219.899 82.2981C219.899 82.2981 218.34 82.0483 216.284 81.7985C216.284 81.7985 214.99 81.7985 212.801 82.7664L208.291 83.2347L206.997 81.7673C206.997 81.7673 206.466 79.8316 203.382 78.8638L202.752 81.5488C202.752 81.5488 201.06 80.8307 198.241 81.5488C198.241 81.5488 201.326 82.5166 202.752 84.4523C202.752 84.4523 200.032 85.4201 198.473 87.3558L194.858 87.6056L192.802 86.1382C192.802 86.1382 189.717 86.6377 189.186 88.0739C189.186 88.0739 186.102 88.3237 184.012 87.3558C183.316 87.0124 181.691 88.0739 180.397 89.0418L177.545 92.6946C177.545 92.6946 175.488 93.9122 175.986 96.3786H179.07C179.07 96.3786 182.155 97.5338 183.714 96.8157C183.714 96.8157 187.064 95.8479 189.12 96.8157V99.251L185.007 102.904L182.155 103.872C182.155 103.872 182.42 101.686 180.364 103.872H177.511L174.427 105.089C174.427 105.089 173.399 104.59 171.575 106.307C171.575 106.307 168.722 107.025 166.666 106.307C166.666 106.307 166.666 107.774 164.079 109.71C163.847 109.866 163.747 109.96 163.681 110.022C162.752 110.709 163.183 110.428 163.648 110.085C163.548 110.272 164.079 110.272 164.079 111.677C164.079 111.677 163.316 113.144 163.548 115.579L164.344 116.797C164.344 116.797 165.372 118.264 164.842 120.2C164.842 120.2 165.638 121.418 166.666 123.104L164.609 125.289C164.609 125.289 163.051 127.475 160.729 126.756V123.853L157.644 122.386V118.983L155.323 116.797V110.209H152.47L150.911 113.519C150.911 113.519 148.855 114.643 147.827 116.828C147.827 116.828 146.268 117.078 143.946 115.361L146.533 113.519L143.946 111.958L141.094 112.457C141.094 112.457 140.298 114.143 139.27 115.86L135.157 114.893L131.276 113.425L132.039 111.739C132.039 111.739 130.746 110.522 129.452 110.241L126.6 112.957L124.809 113.55C124.809 113.55 121.691 113.456 121.459 113.55C121.194 113.644 118.109 115.892 118.109 115.892L116.948 118.577C116.948 118.577 112.437 118.327 112.172 119.794L107.263 121.48C107.263 121.48 105.704 120.762 102.885 121.48C102.885 121.48 100.829 124.633 100.829 125.851C100.829 125.851 98.5071 127.537 98.5071 128.755C98.5071 128.755 96.7161 130.94 94.6266 133.375V137.278C94.6266 137.278 93.8637 139.214 92.0395 140.681L89.9831 138.995C89.9831 138.995 87.3961 140.462 84.8091 141.43L83.5155 144.334L81.4592 147.019L80.431 150.172L80.9617 153.825C80.9617 153.825 81.7245 156.728 83.2834 156.728C83.2834 156.728 84.8422 156.728 84.8422 158.414C84.8422 158.414 83.814 159.882 82.5205 159.382L81.227 161.817V163.035C81.227 163.035 79.6681 166.438 81.227 168.374V172.152C82.5868 171.059 83.8472 170.153 84.5769 169.841L84.8422 167.156C84.8422 167.156 85.3397 166.875 86.9318 167.812L86.5337 167.156C86.5337 167.156 87.3961 164.721 87.6946 162.536C87.9931 160.35 89.6183 156.385 89.6183 156.385V151.577C89.6183 149.048 87.9931 145.77 87.9931 145.77C93.1009 143.21 96.9814 139.932 96.9814 139.932C99.3031 136.653 99.3031 133.375 99.3031 133.375L101.625 135.561L107.429 139.214C107.429 139.214 108.192 143.959 107.429 145.052C106.666 146.145 109.883 151.421 110.381 152.233C110.912 153.076 113.665 154.387 113.665 154.387L116.948 158.383L110.348 162.504C108.922 166.501 103.88 169.779 103.88 169.779C103.88 169.779 103.482 172.339 103.88 173.432C104.278 174.524 105.041 177.428 105.041 177.428L101.559 181.424C101.559 181.424 98.474 185.077 96.9151 183.61L93.0345 179.957L87.9268 185.077L84.1125 187.98C84.1125 187.98 81.028 191.633 80.4973 192.726C79.9666 193.819 84.5105 194.193 85.6714 194.318C86.8323 194.443 86.0694 201.468 87.9268 202.592C89.8173 203.685 95.3562 205.152 96.9151 208.68L91.5088 210.616C91.5088 210.616 94.9914 213.519 91.5088 218.983C91.5088 218.983 88.7891 222.636 86.1026 221.512L79.5023 218.983C79.5023 218.983 76.7826 220.075 75.6217 221.168C74.4609 222.261 70.1823 220.45 66.6997 218.983C63.2172 217.515 65.5389 216.079 65.4062 215.705C65.2735 215.361 66.6997 210.959 66.6997 210.959C66.6997 210.959 66.3017 207.306 65.5389 205.87C64.776 204.403 63.6152 201.499 64.378 200.406C65.174 199.314 66.6997 196.035 66.6997 194.35C66.6997 192.664 64.1127 188.261 64.1127 188.261V178.083L67.7279 182.205L71.8738 183.172L69.8175 180.737C69.8175 180.737 68.5239 176.117 69.8175 174.431C69.8175 174.431 69.0215 171.527 66.6997 169.56L68.2586 167.125L69.8175 164.69C69.8175 164.69 68.5239 163.472 66.6997 163.222V158.352L67.7279 156.635C67.7279 156.635 69.0214 155.167 72.6367 153.481L73.9302 151.046C73.9302 151.046 73.9302 149.579 74.1955 146.426C74.1955 146.426 74.1955 144.24 75.9866 142.055L78.3083 140.837L78.839 137.184L83.217 133.063L83.7145 130.378C83.7145 130.378 85.7709 127.225 86.3016 126.475C86.8323 125.757 86.0362 125.008 85.0081 125.258C83.9799 125.508 82.421 126.475 79.6018 128.661C79.6018 128.661 76.8489 129.223 75.8207 130.659C75.6881 130.878 75.5554 131.096 75.4891 131.315C75.4891 131.315 72.3713 134.968 69.8175 136.653L69.0546 140.775L67.2636 143.928L63.383 147.081C63.383 147.799 63.1508 148.673 62.7197 149.766C60.597 155.167 54.1625 166.126 52.2057 192.351C52.0398 194.443 51.9072 196.66 51.8408 198.97C51.8408 225.883 59.3034 251.14 72.3382 273.057C72.3382 273.057 74.2619 272.495 76.5836 272.963L77.1474 272.932ZM95.6216 218.858H100.663L102.587 224.321C102.587 224.321 106.467 223.947 110.978 226.132V230.129L114.262 233.781V238.902L117.545 246.176L121.923 244.709L123.847 250.172L121.127 253.825H117.512C117.512 253.825 113.366 253.825 110.912 252.358C110.912 252.358 103.681 250.172 102.52 250.172C101.36 250.172 98.2418 245.801 95.5552 242.149L99.8338 238.496L97.9101 234.125L95.5884 230.129L92.1058 225.04C92.1058 225.04 92.8687 223.229 95.5884 218.858H95.6216Z" fill="#4D4D4D"/>
<path d="M75.6883 177.334L75.1908 182.767C74.826 183.391 74.428 183.641 74.0632 183.703C73.234 183.828 72.5043 183.048 72.5043 183.048L68.3584 182.08L64.7432 177.959V188.137C64.7432 188.137 67.3302 192.507 67.3302 194.225C67.3302 195.942 65.7713 199.189 65.0085 200.281C64.2457 201.374 65.4065 204.278 66.1694 205.745C66.9322 207.212 67.3302 210.834 67.3302 210.834C67.3302 210.834 65.904 215.236 66.0367 215.58C66.1694 215.923 63.8476 217.39 67.3302 218.858C70.8128 220.325 75.0913 222.136 76.2522 221.043C77.413 219.951 80.1328 218.858 80.1328 218.858L86.733 221.387C89.4528 222.511 92.1393 218.858 92.1393 218.858C95.6219 213.394 92.1393 210.491 92.1393 210.491L97.5456 208.555C95.9867 204.996 90.4478 203.56 88.5572 202.467C86.6999 201.374 87.4627 194.318 86.3019 194.193C85.141 194.068 80.6303 193.694 81.1278 192.601C81.6584 191.508 84.743 187.856 84.743 187.856L88.5572 184.952L93.665 179.832L91.0779 177.303C91.0779 177.303 91.675 177.209 92.3383 176.959L90.1493 172.183L87.4627 167.624C85.8707 166.688 85.3732 166.969 85.3732 166.969L85.1078 169.654C84.345 169.966 83.1178 170.871 81.758 171.964C80.5308 172.963 79.2041 174.118 78.1096 175.086C76.7165 176.335 75.6552 177.303 75.6552 177.303L75.6883 177.334Z" fill="#999999"/>
<path d="M219.502 278.427L218.208 279.894V282.455C218.208 282.455 218.208 284.39 218.871 284.141C219.502 283.891 221.193 284.671 221.458 284.141C221.724 283.641 223.382 281.362 223.382 281.362L224.41 279.489L222.089 278.396H219.502V278.427Z" fill="#808080"/>
<path d="M218.207 311.084C218.207 311.084 218.207 310.616 217.047 311.084L215.62 311.365C215.62 311.365 214.327 310.772 213.265 311.365L212.503 312.832C212.503 312.832 210.314 312.957 210.612 313.8C210.612 313.8 209.916 314.768 209.65 315.736C209.385 316.704 211.574 315.736 211.574 315.736H212.237C212.237 315.736 212.768 315.143 214.294 314.893L215.222 313.519C215.222 313.519 216.383 313.051 216.781 313.519C217.179 313.988 218.572 313.519 218.572 313.519C218.572 313.519 219.6 311.958 218.174 311.084H218.207Z" fill="#808080"/>
<path d="M223.117 308.899L222.321 307.556H221.292C221.292 307.556 220.131 309.024 220.762 309.991C220.762 309.991 222.055 309.742 222.785 309.211C222.918 309.117 223.017 309.024 223.083 308.899H223.117Z" fill="#808080"/>
<path d="M200.529 300.063C200.529 300.063 200.696 300.251 200.895 300.251C200.729 300.063 200.529 299.907 200.529 300.063Z" fill="#808080"/>
<path d="M217.71 296.879C217.71 296.879 216.947 296.972 216.151 297.128C214.46 297.534 212.039 298.221 212.039 298.221L209.684 296.879L209.85 296.161C209.452 295.068 208.191 294.194 207.926 294.475C206.765 295.567 205.737 297.035 205.737 297.035L203.913 296.785V298.127L201.856 298.846V300.094C201.856 300.094 201.292 300.25 200.928 300.282C201.193 300.594 201.359 301 200.563 300.5C199.269 299.689 197.976 300.094 197.976 300.094L196.782 300.656C196.151 299.689 196.782 298.846 196.782 298.846C195.787 298.127 195.123 298.127 195.123 298.127V294.443C196.151 293.757 197.843 294.443 197.843 294.443C197.843 294.443 198.739 293.913 199.269 294.131C199.8 294.35 200.828 294.069 200.828 294.069L201.093 291.446H198.772L196.815 290.853C195.82 289.76 194.659 290.01 194.659 289.635C194.659 289.261 193.996 288.293 193.996 288.293C193.996 288.293 193.498 288.543 192.835 288.293C192.171 288.043 191.674 287.825 191.276 287.825C190.878 287.825 189.22 288.418 189.22 288.418C188.589 288.886 188.191 287.825 188.191 287.825V286.232H186.268C185.737 285.015 184.742 284.64 184.344 284.359C182.785 283.298 180.994 283.797 180.994 283.797C180.463 285.015 180.596 285.233 180.364 285.608C179.701 286.576 179.568 287.2 179.568 287.2V288.293C180.099 289.511 178.805 290.135 179.568 290.229C180.364 290.353 180.364 292.164 180.729 292.164C181.094 292.164 182.652 292.539 183.183 292.664C183.714 292.789 184.742 293.881 184.742 293.881L185.505 291.446L185.372 289.386C185.372 289.386 182.652 288.668 183.946 288.668C185.239 288.668 185.372 287.825 186.002 289.167C186.632 290.51 187.694 291.103 187.694 291.103C189.12 291.103 189.12 290.728 189.12 291.946C189.12 293.163 189.883 294.006 189.883 294.006C189.883 294.006 190.646 291.571 191.309 291.571C191.972 291.571 193.1 291.946 193.1 291.946C192.702 293.788 192.205 294.756 192.205 294.756L193.233 297.784L191.674 299.47L191.409 303.591L192.702 304.809L193.1 305.777L192.337 307.587C191.707 308.43 193.1 308.805 193.1 308.805C193.863 310.147 195.024 311.271 195.687 310.866C196.317 310.491 198.009 309.991 198.009 309.991L199.17 311.802C199.7 312.77 200.165 311.303 200.861 310.834C202.287 309.866 202.652 308.774 202.652 308.774L202.022 307.556C203.05 307.556 200.994 306.588 200.596 306.214C200.198 305.839 200.463 304.996 199.17 304.621C197.876 304.247 198.009 303.248 198.407 303.279L200.463 303.404L202.022 303.029C203.183 302.186 204.476 301.936 204.476 301.936L205.903 301.812C206.433 302.405 203.979 304.247 203.979 304.247L206.699 305.714L207.992 304.247H210.447C210.447 304.247 212.503 304.122 212.768 303.747C213.034 303.373 213 301.936 213.398 301.936C213.796 301.936 216.251 301.437 216.251 301.437C216.251 301.437 216.516 299.969 217.146 299.969H219.07C219.07 299.969 218.307 296.941 217.81 296.816L217.71 296.879Z" fill="#808080"/>
<path d="M173.83 283.641H172.039C172.039 283.641 170.745 284.609 171.01 284.983C171.276 285.358 174.36 286.576 174.36 286.576C175.521 286.326 176.151 285.108 176.151 285.108L176.682 283.672L175.256 282.455L173.83 283.672V283.641Z" fill="#808080"/>
<path d="M189.717 321.918C189.717 321.918 189.584 320.825 189.717 320.201C189.849 319.607 189.087 318.983 189.087 318.983L187.528 319.483V320.95C187.528 321.449 185.836 321.918 185.836 321.918L184.543 321.2L183.879 319.857C183.879 319.857 182.088 318.515 181.956 318.515C181.823 318.515 181.956 320.45 181.956 320.45L180.165 321.168L177.976 321.543V324.946C177.976 324.946 179.932 324.946 181.325 324.571C181.325 324.571 182.221 324.447 182.752 324.821C183.282 325.196 183.78 325.664 185.471 325.29L186.5 324.915C187.528 324.54 187.594 326.382 187.594 326.382L188.821 327.725L191.01 326.507L192.569 325.29L195.024 323.822C195.024 323.822 194.393 322.355 192.835 321.887H189.75L189.717 321.918Z" fill="#808080"/>
<path d="M185.704 325.258C185.704 325.258 185.904 325.227 185.97 325.196C185.904 325.196 185.837 325.227 185.704 325.258Z" fill="#808080"/>
<path d="M185.438 325.32C185.438 325.32 185.538 325.32 185.671 325.289C185.605 325.289 185.538 325.289 185.438 325.32Z" fill="#808080"/>
<path d="M194.991 339.932L193.697 338.683C194.858 337.965 193.697 337.341 193.697 337.341H191.243C190.579 338.433 188.788 337.934 188.788 337.934L186.467 339.027C186.467 339.027 185.439 340.244 186.467 340.369C187.495 340.494 189.319 341.337 189.319 341.337C190.878 342.43 192.304 342.305 192.669 342.43C193.067 342.555 194.991 342.43 194.991 342.43L196.782 341.712C196.284 340.619 194.991 339.901 194.991 339.901V339.932Z" fill="#808080"/>
<path d="M238.506 337.341C238.506 337.341 238.506 337.403 238.506 337.434C239.136 338.152 238.506 337.185 238.506 337.31V337.341Z" fill="#808080"/>
<path d="M235.786 337.341L234.493 336.498L233.199 335.998L231.508 336.716C231.242 337.434 229.053 337.809 229.053 337.809C229.053 337.809 225.703 336.841 225.305 336.591C224.907 336.342 223.116 336.591 223.116 336.591L221.325 337.153C222.154 337.809 223.083 338.246 223.713 338.465C223.746 338.496 223.879 338.558 224.178 338.652C225.471 339.12 226.499 339.901 226.499 339.901C227.262 341.212 228.29 341.212 229.086 341.212C229.882 341.212 231.541 341.93 231.541 341.93H233.995L235.786 341.337C235.786 341.337 235.222 340.119 235.786 339.901C237.212 339.401 237.975 339.214 237.975 339.214C237.975 339.214 238.373 337.84 238.473 337.434C237.809 336.748 235.786 337.341 235.786 337.341Z" fill="#808080"/>
<path d="M216.284 156.26H214.26C214.095 154.98 213.299 154.231 213.299 154.231C213.299 154.231 213.398 155.979 213.299 156.26C213.199 156.541 213.033 157.322 213.299 157.759C213.962 158.851 214.99 157.634 215.521 157.759C216.051 157.884 216.814 158.227 216.814 158.227C217.312 156.666 216.284 156.26 216.284 156.26Z" fill="#808080"/>
<path d="M320.462 109.523C320.197 109.148 320.86 108.305 320.462 108.055C320.064 107.805 318.273 107.087 316.979 106.713C315.686 106.338 316.183 105.62 315.686 105.12C315.155 104.621 316.482 103.653 317.112 104.402H318.406L317.742 102.217L316.449 100.406L315.288 99.3133C314.956 99.0011 315.918 97.2528 316.051 96.8781C316.183 96.5035 313.862 95.2859 313.862 95.2859C313.862 95.2859 311.938 95.161 311.54 95.2859C311.142 95.4107 311.009 97.0967 311.009 97.9708C311.009 98.845 310.744 99.6568 310.744 99.6568C310.744 99.6568 311.507 101.124 311.507 101.468C311.507 101.811 310.479 103.403 310.479 103.403L308.82 105.589L311.009 106.182L311.905 107.899C311.905 107.899 315.387 108.274 315.52 108.399C315.653 108.523 317.576 108.523 318.041 108.992C318.505 109.491 319.533 110.209 319.533 110.209C319.533 110.209 320.694 109.835 320.429 109.491L320.462 109.523Z" fill="#808080"/>
<path d="M324.575 116.703C324.177 116.204 324.94 115.486 324.94 115.486L323.149 114.643C323.149 114.643 321.988 113.956 321.723 113.675C320.694 112.582 319.136 113.082 319.136 113.082C319.136 113.082 319.136 114.768 319.633 115.267C320.164 115.767 320.529 117.078 320.529 117.078C320.529 117.078 318.472 117.578 319.102 118.046C319.733 118.545 320.396 119.139 321.026 119.263C321.656 119.388 322.585 119.139 323.083 119.263C323.613 119.388 324.774 120.481 324.774 120.481C325.802 120.606 326.83 119.139 326.83 118.764C326.83 118.389 325.802 117.421 325.802 117.421L324.509 116.703H324.575Z" fill="#808080"/>
<path d="M193.432 55.573C193.034 55.573 191.641 56.0413 191.641 56.0413L189.949 57.5087L190.613 58.4765H193.2L196.151 57.5087L198.208 56.5408L196.748 55.573H193.432Z" fill="#B3B3B3"/>
<path d="M196.151 183.048C194.99 182.923 195.488 181.33 195.488 180.862C195.488 180.394 194.493 179.769 194.161 179.894C193.829 180.019 191.872 182.454 191.74 182.798C191.607 183.172 191.872 184.983 191.872 184.983C190.446 186.201 190.181 187.543 190.048 188.012C189.916 188.511 188.887 189.229 189.65 189.229C190.413 189.229 190.944 190.697 191.839 190.697C192.735 190.697 193.266 191.54 193.266 191.914C193.266 192.289 192.768 193.6 192.768 193.6C193.166 194.443 193.033 195.411 193.033 195.411H190.977L190.446 197.003C190.712 197.596 191.74 198.19 191.74 198.19H187.859C187.229 197.222 186.334 196.785 186.334 196.785L186.964 194.911C186.964 194.193 186.334 194.006 186.334 195.411C186.334 196.816 185.438 197.003 185.438 197.003C185.438 197.003 184.543 198.065 185.438 198.19C186.334 198.315 187.362 198.939 187.362 198.939C187.362 198.939 187.992 200.968 187.992 201.343C187.992 201.718 188.257 202.685 188.257 202.685C189.551 203.778 189.949 204.621 189.949 204.621C190.446 205.714 189.683 207.306 189.683 207.306C191.375 207.806 192.536 207.806 193.033 207.806H194.327C195.62 208.399 196.35 208.773 196.748 208.399C197.179 208.024 196.748 206.338 196.748 206.338V204.996C197.544 203.903 198.44 204.028 198.44 203.404C198.44 202.779 199.6 200.375 199.6 200.375C199.335 199.782 199.6 198.939 199.6 198.939C199.103 197.971 199.302 197.222 199.468 196.847C200.761 196.129 201.259 195.38 201.657 195.286C202.055 195.161 203.083 195.411 203.216 195.036C203.348 194.662 203.216 193.444 203.216 193.444L201.292 192.945C201.292 192.945 200.396 191.852 200.529 191.227C200.662 190.634 200.927 190.01 200.396 190.01H199.103C198.34 188.667 196.748 187.949 196.748 187.949C196.748 187.949 196.748 187.824 196.715 187.575C196.682 187.231 196.649 186.669 196.748 185.982C196.814 185.545 196.914 185.389 196.98 185.295C197.047 185.202 197.113 185.202 197.047 185.108C197.047 185.077 196.98 184.983 196.914 184.858C196.516 184.265 196.516 182.954 196.151 182.923V183.048Z" fill="#808080"/>
<path d="M206.864 164.44C206.102 164.065 207.893 163.097 207.893 162.848C207.893 162.598 207.13 161.38 205.969 161.037C204.808 160.662 205.206 160.912 204.045 161.755C204.045 161.755 203.78 159.819 203.316 159.819C202.851 159.819 201.458 159.101 201.458 159.101C201.458 159.101 202.486 157.165 202.354 156.822C202.221 156.479 200.563 156.822 200.563 156.822C200.563 156.822 199.534 157.415 199.269 157.884C199.004 158.383 198.241 157.634 196.782 156.822L193.067 158.976L192.304 157.759L189.717 158.602C189.717 158.602 188.423 157.634 188.025 157.509C187.627 157.384 186.599 158.352 186.599 158.352C186.599 158.352 184.676 158.477 184.278 158.227C183.88 157.977 183.515 157.509 183.117 157.009C182.719 156.51 180.662 157.009 180.662 157.009V160.662C180.662 161.63 179.103 160.662 178.606 160.662C178.108 160.662 176.815 161.037 176.152 161.037C175.488 161.037 175.621 159.819 175.521 159.101C175.389 158.383 174.228 158.258 174.228 158.258C174.228 158.258 172.669 158.008 172.304 157.884C171.939 157.759 169.916 157.041 169.916 157.041C169.916 157.041 169.186 158.976 169.916 159.476C169.916 159.476 170.248 160.194 169.982 161.193C169.717 162.192 170.38 161.661 171.939 161.287C172.967 161.037 172.304 161.412 172.835 161.287C173.365 161.162 173.498 162.379 173.498 162.379L172.967 163.722L172.702 165.064C172.702 165.064 171.807 165.907 172.072 166.532C172.072 166.532 171.541 169.092 172.702 169.092H175.024L175.157 170.185C175.157 170.185 174.626 171.777 174.261 172.62C173.863 173.463 175.555 172.745 176.45 173.463C176.749 173.713 176.583 174.805 177.876 175.149C177.876 175.149 178.407 176.366 180.198 177.334C180.198 177.334 182.122 176.835 182.652 176.117C183.183 175.367 183.548 176.491 184.211 176.117L186.035 175.274L187.462 175.398C187.462 175.398 188.357 175.898 189.385 174.555C190.413 173.213 190.281 174.555 190.679 174.93C191.077 175.305 191.574 174.93 192.735 173.713L194.228 174.68C194.228 174.68 194.792 173.837 196.815 174.181C197.544 174.306 197.743 174.68 199.17 173.588L200.695 173.962C200.695 173.962 202.519 172.62 203.349 172.276L203.946 173.494C203.946 173.494 203.448 176.273 204.211 176.054C204.211 176.054 206.931 176.304 207.296 176.054C207.694 175.804 208.092 175.086 208.191 174.587C208.291 174.274 209.352 173.9 210.048 173.681C210.413 173.588 210.645 173.494 210.645 173.494C210.645 173.494 211.043 172.526 209.617 171.309C209.617 171.309 210.38 170.466 210.911 170.466C211.441 170.466 213.763 168.155 214.261 167.187C214.791 166.22 211.043 166.344 210.645 166.344C210.413 166.344 210.214 166.188 209.949 166.001C209.783 165.845 209.551 165.658 209.352 165.501C208.821 165.127 207.66 164.908 206.898 164.534L206.864 164.44Z" fill="#808080"/>
<path d="M205.305 153.013C204.775 152.92 203.249 152.545 203.249 152.545V150.235L201.193 149.735L198.738 150.828C198.738 150.828 196.118 149.985 196.781 151.421C197.445 152.888 198.738 154.231 198.738 154.231C198.738 154.231 200.032 154.106 200.529 154.231C201.027 154.356 203.116 154.356 203.249 154.231C203.382 154.106 204.277 155.948 204.675 155.948C205.073 155.948 206.101 156.666 206.234 155.948C206.367 155.23 205.836 153.107 205.339 153.013H205.305Z" fill="#808080"/>
<path d="M184.41 148.486H181.823C181.823 148.486 180.662 148.767 180.264 148.517C179.866 148.267 178.706 149.235 178.706 149.235L177.147 149.735C177.147 149.735 176.384 150.952 177.147 150.952H179.303C178.573 152.17 176.848 152.857 176.815 152.982C176.782 153.138 177.677 154.699 178.075 154.231C178.473 153.762 180.397 152.42 180.928 152.045C181.425 151.671 182.487 151.39 182.487 151.39L183.249 149.735C184.278 149.61 185.04 149.142 185.04 149.142L184.41 148.486Z" fill="#808080"/>
<path d="M192.403 151.421L190.347 150.609L188.788 149.766L187.495 150.609L185.803 151.452C185.272 152.701 184.377 153.044 184.377 153.044C184.377 153.044 184.51 154.637 185.803 154.293C187.097 153.918 188.39 154.293 188.39 154.293C188.39 154.293 187.76 153.419 188.39 153.044C189.054 152.701 189.949 152.045 189.949 152.045L191.906 153.044V154.293C191.906 154.293 192.636 154.668 193.166 154.293C193.697 153.918 194.161 153.044 194.161 153.044L192.901 151.452H192.403V151.421Z" fill="#808080"/>
<path d="M88.623 116.703V118.296L88.5566 119.919C88.5566 119.919 91.3427 118.327 91.9729 118.108C92.0392 118.108 92.1055 118.077 92.205 118.077C93.0342 118.015 94.8916 118.545 95.1238 118.358C95.3891 118.139 97.1801 117.359 97.5118 117.172C97.8435 116.984 97.4455 116.266 98.6395 115.486C99.8003 114.705 100.862 114.018 101.359 113.987C101.857 113.956 101.989 114.799 101.956 115.111C101.923 115.423 101.094 116.454 100.928 116.703C100.795 116.953 100.596 117.296 100.928 117.234C101.293 117.172 103.117 116.516 103.316 116.516C103.515 116.516 104.377 116.454 104.377 116.454L105.538 114.986L106.401 113.925C106.401 113.925 107.13 113.207 107.13 113.05C107.13 112.894 107.462 111.677 107.462 111.677C107.462 111.677 107.694 111.084 107.86 111.052C107.993 111.021 108.59 110.678 108.722 110.584C108.855 110.49 109.12 108.836 109.153 108.711C109.22 108.586 111.011 106.119 111.011 106.119C111.011 106.119 111.442 105.62 111.442 105.495C111.442 105.37 112.901 104.215 112.901 104.215L114.56 104.527L115.124 102.748C115.124 102.748 115.754 102.342 116.085 102.467C116.417 102.591 118.175 102.841 118.175 102.841C118.175 102.841 118.706 100.531 118.938 100.656C119.17 100.781 120.629 100.781 121.061 101.03C121.492 101.249 121.823 101.53 122.221 101.405C122.619 101.28 125.074 100.125 125.074 100.125C125.074 100.125 126.434 99.7504 126.633 99.7192C126.832 99.6567 129.352 99.0948 129.087 99.1572C128.855 99.2509 127.594 101.124 127.594 101.124C127.594 101.124 127.163 102.248 127.395 102.248C127.628 102.248 129.817 101.374 129.817 101.374C129.817 101.374 131.309 100.562 131.508 100.5C131.707 100.437 133.498 100.031 133.498 100.031L134.427 98.5328C134.427 98.5328 135.488 96.441 135.389 96.2537C135.289 96.0663 135.19 95.036 136.118 95.4731C137.047 95.9415 138.407 96.3473 138.44 97.0342C138.507 97.721 138.672 98.7825 139.07 99.0948C139.468 99.407 140.331 99.6879 140.662 99.9689C140.994 100.25 141.956 100.749 143.316 100.843C144.676 100.937 145.438 100.843 145.637 100.843C145.836 100.843 146.865 99.7504 146.865 99.7504C146.865 99.7504 148.888 99.0323 148.888 98.7513C148.888 98.4703 149.551 97.8459 149.551 97.8459L151.475 98.6577C151.475 98.6577 152.735 98.3767 153.034 98.0957C153.332 97.8147 153.697 97.6274 154.493 97.8147C155.256 98.002 156.616 97.9084 156.616 97.9084L157.777 96.1912C158.639 95.4731 160.961 95.3795 160.961 95.3795L162.321 93.4438L163.879 92.913L164.377 92.0076V90.6339L166.135 89.4475C166.135 89.4475 166.632 88.6358 166.135 88.3548C165.637 88.0738 166.367 86.544 166.367 86.544C166.367 86.544 165.272 85.7322 165.007 85.6386C164.709 85.5449 163.747 84.5459 163.747 84.5459L165.007 82.6414L164.211 81.3613L165.969 79.894L167.727 78.3329H170.148L171.408 76.0538C172.271 75.5855 173.929 73.7747 174.029 73.4937C174.128 73.2127 176.052 72.9317 176.052 72.9317L176.715 71.839V69.6535C176.715 69.6535 178.473 69.8409 177.777 68.6545C177.08 67.4681 176.616 67.2808 176.218 66.6563C175.82 66.0319 176.118 66.0944 175.256 65.4699C174.393 64.8455 173.034 64.6582 173.034 64.6582L173.133 67.4993C173.133 67.4993 172.37 68.0301 171.574 68.1237C170.778 68.2174 169.054 67.9364 168.855 68.4984C168.656 69.0291 168.291 69.6848 168.291 69.6848L163.913 71.2458L162.088 70.4341L159.966 72.4322L158.506 73.2439L156.583 72.9629C155.521 73.2439 153.763 72.682 153.763 72.682C153.763 72.682 152.702 73.4937 152.304 73.962C151.906 74.4303 150.646 75.7728 150.646 75.7728L151.906 77.2402L151.21 78.3329C151.21 78.3329 149.883 78.3329 149.485 78.3329C148.523 78.3329 146.666 79.613 146.666 79.894C146.666 80.1749 147.826 81.174 147.826 81.174L145.704 82.4541C145.604 83.2658 144.344 83.7341 144.344 83.7341C144.344 83.7341 142.022 83.2658 141.624 83.4531C141.226 83.6405 138.739 84.0151 138.739 84.0151L137.876 82.5477L136.616 82.9224L134.095 84.5771L134.394 85.8571C134.394 85.8571 132.271 87.9489 131.973 88.0426C131.674 88.1363 131.309 89.0417 131.21 89.4163C131.11 89.791 129.386 90.79 129.386 90.79L127.628 91.2583C127.628 91.2583 126.765 92.632 126.268 91.8827C125.77 91.1647 124.609 89.9783 124.609 89.9783L123.648 89.51C123.648 89.51 122.951 89.8846 122.785 90.1344C122.586 90.4154 122.022 89.8534 121.525 89.7597C121.061 89.6661 120.563 90.9461 120.563 90.9461L118.739 92.3198L118.639 93.0379L117.644 93.5687C117.644 93.5687 118.208 94.1306 117.644 94.4741C117.08 94.8487 115.754 95.4731 115.621 95.9414C115.522 96.4098 115.223 97.5025 115.223 97.5025L114.328 98.4079L113.2 99.5006L111.741 98.0332L110.381 99.5006L109.618 100.687C109.618 100.687 108.258 99.8753 107.959 99.7816C107.661 99.6879 106.898 100.063 106.6 99.6879C106.301 99.3133 104.941 98.5952 104.941 98.5952L104.842 97.3152L103.084 98.2206C103.084 98.2206 101.824 99.9377 102.222 99.9377C102.62 99.9377 103.482 100.562 103.482 100.562C103.482 100.562 103.78 101.468 103.88 101.749C103.979 102.03 103.283 103.029 103.283 103.029L101.691 104.527L100.829 106.119L99.9662 107.025H99.2033C99.2033 107.025 98.2746 106.432 98.142 106.4C98.0093 106.369 97.4455 106.369 97.2796 106.681C97.0806 106.994 96.5168 108.773 96.5168 108.773C96.5168 108.773 96.3841 109.366 96.1851 109.398C95.9861 109.429 94.6926 110.397 94.6262 110.553C94.5931 110.678 94.2282 111.458 93.7971 111.77C93.3659 112.083 93.2664 112.863 93.2664 113.082C93.2664 113.3 92.6362 114.892 92.6362 114.892C92.6362 114.892 92.2382 114.487 91.5749 114.83C91.5749 114.83 91.5085 114.861 91.4754 114.892C90.7457 115.361 88.8551 116.516 88.7225 116.641L88.623 116.703Z" fill="#B3B3B3"/>
<path d="M170.712 86.2006C171.11 86.0133 171.774 86.2006 171.774 86.2006L172.271 87.9178C172.271 87.9178 175.555 88.2924 176.052 87.9178C176.55 87.5431 177.147 86.9187 177.843 86.7314C178.573 86.5441 179.535 85.4825 179.9 85.3577C181.06 84.983 182.122 83.9839 182.122 83.9839C182.122 83.9839 182.686 83.984 183.482 83.5781C184.245 83.1722 184.842 82.5478 184.842 82.5478L185.505 80.8931L183.847 80.175L184.444 79.0823C184.444 79.0823 184.344 77.2715 184.046 77.1778C183.747 77.0842 183.349 76.4597 183.449 75.9914C183.548 75.5231 184.112 74.3367 184.112 74.3367C184.112 74.3367 184.51 73.6186 184.311 73.0567C184.112 72.4947 184.51 71.3395 184.51 71.3395L182.188 70.8712H180.364C180.364 70.8712 179.866 72.7757 179.601 73.0567C179.303 73.3377 177.843 74.524 176.782 74.4304C175.721 74.3367 175.124 74.1494 175.124 74.4304C175.124 74.7114 174.626 75.8978 174.46 76.2412C174.261 76.6158 172.802 78.333 172.901 78.333C173.001 78.333 174.261 79.0823 174.261 79.0823L172.603 80.8931L171.243 82.6102L170.182 83.2659V84.8269C170.182 84.8269 170.281 86.388 170.679 86.2006H170.712Z" fill="#B3B3B3"/>
<path d="M97.9098 234.187L99.8335 238.558L95.5549 242.211C98.2746 245.864 101.359 250.235 102.52 250.235C103.681 250.235 110.911 252.42 110.911 252.42C113.366 253.888 117.512 253.888 117.512 253.888H121.127L123.847 250.235L121.923 244.771L117.545 246.238L114.261 238.964V233.844L110.978 230.191V226.195C106.467 224.009 102.586 224.384 102.586 224.384L100.663 218.92H95.6212C92.9015 223.291 92.1387 225.102 92.1387 225.102L95.6212 230.191L97.9429 234.187H97.9098Z" fill="#999999"/>
<path d="M92.3381 176.991L93.6316 179.863L97.5122 183.516C99.0379 184.983 102.156 181.33 102.156 181.33L105.638 177.334C105.638 177.334 104.875 174.431 104.477 173.338C104.079 172.245 104.477 169.685 104.477 169.685C104.477 169.685 109.519 166.407 110.945 162.411L117.545 158.289L114.262 154.293C114.262 154.293 111.476 152.951 110.978 152.139C110.447 151.296 107.23 146.051 108.026 144.958C108.789 143.865 108.026 139.12 108.026 139.12L102.222 135.467L99.9002 133.282C99.9002 133.282 99.9002 136.56 97.5785 139.838C97.5785 139.838 93.698 143.116 88.5902 145.676C88.5902 145.676 90.2154 148.954 90.2154 151.483V156.291C90.2154 156.291 88.5902 160.256 88.2917 162.442C87.9932 164.627 87.1309 167.063 87.1309 167.063L87.5289 167.718L90.2154 172.276L92.4045 177.053L92.3381 176.991Z" fill="#333333"/>
</g>
<defs>
<linearGradient id="paint0_linear_77_372" x1="414.325" y1="200.516" x2="11.708" y2="200.516" gradientUnits="userSpaceOnUse">
<stop offset="0.125" stop-color="#183451"/>
<stop offset="1" stop-color="#999893"/>
</linearGradient>
<linearGradient id="paint1_linear_77_372" x1="409.317" y1="200.5" x2="16.7168" y2="200.5" gradientUnits="userSpaceOnUse">
<stop stop-color="#183451"/>
<stop offset="0.29" stop-color="#3D5164"/>
<stop offset="1" stop-color="#999891"/>
</linearGradient>
<clipPath id="clip0_77_372">
<rect width="426" height="401" fill="white"/>
</clipPath>
</defs>
</svg>
